<svg height="656" width="656" xmlns="http://www.w3.org/2000/svg">
<rect fill="white" height="100%" width="100%"/>
<path d="M8,8 L8,16 L8,24 L16,24 L16,16 L16,8 L24,8 L24,16 L24,24 L24,32 L24,40 L24,48 L16,48 L16,40 L16,32 L8,32 L8,40 L8,48 L8,56 L8,64 L8,72 L16,72 L16,64 L16,56 L24,56 L24,64 L24,72 L32,72 L32,64 L32,56 L40,56 L40,64 L40,72 L48,72 L48,64 L48,56 L48,48 L48,40 L48,32 L40,32 L40,40 L40,48 L32,48 L32,40 L32,32 L32,24 L32,16 L32,8 L40,8 L40,16 L40,24 L48,24 L48,16 L48,8 L56,8 L56,16 L56,24 L64,24 L64,16 L64,8 L72,8 L72,16 L72,24 L72,32 L72,40 L72,48 L64,48 L64,40 L64,32 L56,32 L56,40 L56,48 L56,56 L56,64 L56,72 L64,72 L64,64 L64,56 L72,56 L72,64 L72,72 L72,80 L72,88 L72,96 L64,96 L64,88 L64,80 L56,80 L56,88 L56,96 L56,104 L56,112 L56,120 L64,120 L64,112 L64,104 L72,104 L72,112 L72,120 L72,128 L72,136 L72,144 L64,144 L64,136 L64,128 L56,128 L56,136 L56,144 L48,144 L48,136 L48,128 L40,128 L40,136 L40,144 L32,144 L32,136 L32,128 L32,120 L32,112 L32,104 L40,104 L40,112 L40,120 L48,120 L48,112 L48,104 L48,96 L48,88 L48,80 L40,80 L40,88 L40,96 L32,96 L32,88 L32,80 L24,80 L24,88 L24,96 L16,96 L16,88 L16,80 L8,80 L8,88 L8,96 L8,104 L8,112 L8,120 L16,120 L16,112 L16,104 L24,104 L24,112 L24,120 L24,128 L24,136 L24,144 L16,144 L16,136 L16,128 L8,128 L8,136 L8,144 L8,152 L8,160 L8,168 L16,168 L16,160 L16,152 L24,152 L24,160 L24,168 L24,176 L24,184 L24,192 L16,192 L16,184 L16,176 L8,176 L8,184 L8,192 L8,200 L8,208 L8,216 L16,216 L16,208 L16,200 L24,200 L24,208 L24,216 L32,216 L32,208 L32,200 L40,200 L40,208 L40,216 L48,216 L48,208 L48,200 L48,192 L48,184 L48,176 L40,176 L40,184 L40,192 L32,192 L32,184 L32,176 L32,168 L32,160 L32,152 L40,152 L40,160 L40,168 L48,168 L48,160 L48,152 L56,152 L56,160 L56,168 L64,168 L64,160 L64,152 L72,152 L72,160 L72,168 L72,176 L72,184 L72,192 L64,192 L64,184 L64,176 L56,176 L56,184 L56,192 L56,200 L56,208 L56,216 L64,216 L64,208 L64,200 L72,200 L72,208 L72,216 L80,216 L80,208 L80,200 L88,200 L88,208 L88,216 L96,216 L96,208 L96,200 L96,192 L96,184 L96,176 L88,176 L88,184 L88,192 L80,192 L80,184 L80,176 L80,168 L80,160 L80,152 L88,152 L88,160 L88,168 L96,168 L96,160 L96,152 L104,152 L104,160 L104,168 L112,168 L112,160 L112,152 L120,152 L120,160 L120,168 L120,176 L120,184 L120,192 L112,192 L112,184 L112,176 L104,176 L104,184 L104,192 L104,200 L104,208 L104,216 L112,216 L112,208 L112,200 L120,200 L120,208 L120,216 L128,216 L128,208 L128,200 L136,200 L136,208 L136,216 L144,216 L144,208 L144,200 L144,192 L144,184 L144,176 L136,176 L136,184 L136,192 L128,192 L128,184 L128,176 L128,168 L128,160 L128,152 L136,152 L136,160 L136,168 L144,168 L144,160 L144,152 L144,144 L144,136 L144,128 L136,128 L136,136 L136,144 L128,144 L128,136 L128,128 L128,120 L128,112 L128,104 L136,104 L136,112 L136,120 L144,120 L144,112 L144,104 L144,96 L144,88 L144,80 L136,80 L136,88 L136,96 L128,96 L128,88 L128,80 L120,80 L120,88 L120,96 L112,96 L112,88 L112,80 L104,80 L104,88 L104,96 L104,104 L104,112 L104,120 L112,120 L112,112 L112,104 L120,104 L120,112 L120,120 L120,128 L120,136 L120,144 L112,144 L112,136 L112,128 L104,128 L104,136 L104,144 L96,144 L96,136 L96,128 L88,128 L88,136 L88,144 L80,144 L80,136 L80,128 L80,120 L80,112 L80,104 L88,104 L88,112 L88,120 L96,120 L96,112 L96,104 L96,96 L96,88 L96,80 L88,80 L88,88 L88,96 L80,96 L80,88 L80,80 L80,72 L80,64 L80,56 L88,56 L88,64 L88,72 L96,72 L96,64 L96,56 L96,48 L96,40 L96,32 L88,32 L88,40 L88,48 L80,48 L80,40 L80,32 L80,24 L80,16 L80,8 L88,8 L88,16 L88,24 L96,24 L96,16 L96,8 L104,8 L104,16 L104,24 L112,24 L112,16 L112,8 L120,8 L120,16 L120,24 L120,32 L120,40 L120,48 L112,48 L112,40 L112,32 L104,32 L104,40 L104,48 L104,56 L104,64 L104,72 L112,72 L112,64 L112,56 L120,56 L120,64 L120,72 L128,72 L128,64 L128,56 L136,56 L136,64 L136,72 L144,72 L144,64 L144,56 L144,48 L144,40 L144,32 L136,32 L136,40 L136,48 L128,48 L128,40 L128,32 L128,24 L128,16 L128,8 L136,8 L136,16 L136,24 L144,24 L144,16 L144,8 L152,8 L152,16 L152,24 L160,24 L160,16 L160,8 L168,8 L168,16 L168,24 L168,32 L168,40 L168,48 L160,48 L160,40 L160,32 L152,32 L152,40 L152,48 L152,56 L152,64 L152,72 L160,72 L160,64 L160,56 L168,56 L168,64 L168,72 L176,72 L176,64 L176,56 L184,56 L184,64 L184,72 L192,72 L192,64 L192,56 L192,48 L192,40 L192,32 L184,32 L184,40 L184,48 L176,48 L176,40 L176,32 L176,24 L176,16 L176,8 L184,8 L184,16 L184,24 L192,24 L192,16 L192,8 L200,8 L200,16 L200,24 L208,24 L208,16 L208,8 L216,8 L216,16 L216,24 L216,32 L216,40 L216,48 L208,48 L208,40 L208,32 L200,32 L200,40 L200,48 L200,56 L200,64 L200,72 L208,72 L208,64 L208,56 L216,56 L216,64 L216,72 L216,80 L216,88 L216,96 L208,96 L208,88 L208,80 L200,80 L200,88 L200,96 L200,104 L200,112 L200,120 L208,120 L208,112 L208,104 L216,104 L216,112 L216,120 L216,128 L216,136 L216,144 L208,144 L208,136 L208,128 L200,128 L200,136 L200,144 L192,144 L192,136 L192,128 L184,128 L184,136 L184,144 L176,144 L176,136 L176,128 L176,120 L176,112 L176,104 L184,104 L184,112 L184,120 L192,120 L192,112 L192,104 L192,96 L192,88 L192,80 L184,80 L184,88 L184,96 L176,96 L176,88 L176,80 L168,80 L168,88 L168,96 L160,96 L160,88 L160,80 L152,80 L152,88 L152,96 L152,104 L152,112 L152,120 L160,120 L160,112 L160,104 L168,104 L168,112 L168,120 L168,128 L168,136 L168,144 L160,144 L160,136 L160,128 L152,128 L152,136 L152,144 L152,152 L152,160 L152,168 L160,168 L160,160 L160,152 L168,152 L168,160 L168,168 L168,176 L168,184 L168,192 L160,192 L160,184 L160,176 L152,176 L152,184 L152,192 L152,200 L152,208 L152,216 L160,216 L160,208 L160,200 L168,200 L168,208 L168,216 L176,216 L176,208 L176,200 L184,200 L184,208 L184,216 L192,216 L192,208 L192,200 L192,192 L192,184 L192,176 L184,176 L184,184 L184,192 L176,192 L176,184 L176,176 L176,168 L176,160 L176,152 L184,152 L184,160 L184,168 L192,168 L192,160 L192,152 L200,152 L200,160 L200,168 L208,168 L208,160 L208,152 L216,152 L216,160 L216,168 L216,176 L216,184 L216,192 L208,192 L208,184 L208,176 L200,176 L200,184 L200,192 L200,200 L200,208 L200,216 L208,216 L208,208 L208,200 L216,200 L216,208 L216,216 L216,224 L216,232 L216,240 L208,240 L208,232 L208,224 L200,224 L200,232 L200,240 L200,248 L200,256 L200,264 L208,264 L208,256 L208,248 L216,248 L216,256 L216,264 L216,272 L216,280 L216,288 L208,288 L208,280 L208,272 L200,272 L200,280 L200,288 L192,288 L192,280 L192,272 L184,272 L184,280 L184,288 L176,288 L176,280 L176,272 L176,264 L176,256 L176,248 L184,248 L184,256 L184,264 L192,264 L192,256 L192,248 L192,240 L192,232 L192,224 L184,224 L184,232 L184,240 L176,240 L176,232 L176,224 L168,224 L168,232 L168,240 L160,240 L160,232 L160,224 L152,224 L152,232 L152,240 L152,248 L152,256 L152,264 L160,264 L160,256 L160,248 L168,248 L168,256 L168,264 L168,272 L168,280 L168,288 L160,288 L160,280 L160,272 L152,272 L152,280 L152,288 L152,296 L152,304 L152,312 L160,312 L160,304 L160,296 L168,296 L168,304 L168,312 L168,320 L168,328 L168,336 L160,336 L160,328 L160,320 L152,320 L152,328 L152,336 L152,344 L152,352 L152,360 L160,360 L160,352 L160,344 L168,344 L168,352 L168,360 L176,360 L176,352 L176,344 L184,344 L184,352 L184,360 L192,360 L192,352 L192,344 L192,336 L192,328 L192,320 L184,320 L184,328 L184,336 L176,336 L176,328 L176,320 L176,312 L176,304 L176,296 L184,296 L184,304 L184,312 L192,312 L192,304 L192,296 L200,296 L200,304 L200,312 L208,312 L208,304 L208,296 L216,296 L216,304 L216,312 L216,320 L216,328 L216,336 L208,336 L208,328 L208,320 L200,320 L200,328 L200,336 L200,344 L200,352 L200,360 L208,360 L208,352 L208,344 L216,344 L216,352 L216,360 L216,368 L216,376 L216,384 L208,384 L208,376 L208,368 L200,368 L200,376 L200,384 L200,392 L200,400 L200,408 L208,408 L208,400 L208,392 L216,392 L216,400 L216,408 L216,416 L216,424 L216,432 L208,432 L208,424 L208,416 L200,416 L200,424 L200,432 L192,432 L192,424 L192,416 L184,416 L184,424 L184,432 L176,432 L176,424 L176,416 L176,408 L176,400 L176,392 L184,392 L184,400 L184,408 L192,408 L192,400 L192,392 L192,384 L192,376 L192,368 L184,368 L184,376 L184,384 L176,384 L176,376 L176,368 L168,368 L168,376 L168,384 L160,384 L160,376 L160,368 L152,368 L152,376 L152,384 L152,392 L152,400 L152,408 L160,408 L160,400 L160,392 L168,392 L168,400 L168,408 L168,416 L168,424 L168,432 L160,432 L160,424 L160,416 L152,416 L152,424 L152,432 L144,432 L144,424 L144,416 L136,416 L136,424 L136,432 L128,432 L128,424 L128,416 L128,408 L128,400 L128,392 L136,392 L136,400 L136,408 L144,408 L144,400 L144,392 L144,384 L144,376 L144,368 L136,368 L136,376 L136,384 L128,384 L128,376 L128,368 L120,368 L120,376 L120,384 L112,384 L112,376 L112,368 L104,368 L104,376 L104,384 L104,392 L104,400 L104,408 L112,408 L112,400 L112,392 L120,392 L120,400 L120,408 L120,416 L120,424 L120,432 L112,432 L112,424 L112,416 L104,416 L104,424 L104,432 L96,432 L96,424 L96,416 L88,416 L88,424 L88,432 L80,432 L80,424 L80,416 L80,408 L80,400 L80,392 L88,392 L88,400 L88,408 L96,408 L96,400 L96,392 L96,384 L96,376 L96,368 L88,368 L88,376 L88,384 L80,384 L80,376 L80,368 L80,360 L80,352 L80,344 L88,344 L88,352 L88,360 L96,360 L96,352 L96,344 L96,336 L96,328 L96,320 L88,320 L88,328 L88,336 L80,336 L80,328 L80,320 L80,312 L80,304 L80,296 L88,296 L88,304 L88,312 L96,312 L96,304 L96,296 L104,296 L104,304 L104,312 L112,312 L112,304 L112,296 L120,296 L120,304 L120,312 L120,320 L120,328 L120,336 L112,336 L112,328 L112,320 L104,320 L104,328 L104,336 L104,344 L104,352 L104,360 L112,360 L112,352 L112,344 L120,344 L120,352 L120,360 L128,360 L128,352 L128,344 L136,344 L136,352 L136,360 L144,360 L144,352 L144,344 L144,336 L144,328 L144,320 L136,320 L136,328 L136,336 L128,336 L128,328 L128,320 L128,312 L128,304 L128,296 L136,296 L136,304 L136,312 L144,312 L144,304 L144,296 L144,288 L144,280 L144,272 L136,272 L136,280 L136,288 L128,288 L128,280 L128,272 L128,264 L128,256 L128,248 L136,248 L136,256 L136,264 L144,264 L144,256 L144,248 L144,240 L144,232 L144,224 L136,224 L136,232 L136,240 L128,240 L128,232 L128,224 L120,224 L120,232 L120,240 L112,240 L112,232 L112,224 L104,224 L104,232 L104,240 L104,248 L104,256 L104,264 L112,264 L112,256 L112,248 L120,248 L120,256 L120,264 L120,272 L120,280 L120,288 L112,288 L112,280 L112,272 L104,272 L104,280 L104,288 L96,288 L96,280 L96,272 L88,272 L88,280 L88,288 L80,288 L80,280 L80,272 L80,264 L80,256 L80,248 L88,248 L88,256 L88,264 L96,264 L96,256 L96,248 L96,240 L96,232 L96,224 L88,224 L88,232 L88,240 L80,240 L80,232 L80,224 L72,224 L72,232 L72,240 L64,240 L64,232 L64,224 L56,224 L56,232 L56,240 L56,248 L56,256 L56,264 L64,264 L64,256 L64,248 L72,248 L72,256 L72,264 L72,272 L72,280 L72,288 L64,288 L64,280 L64,272 L56,272 L56,280 L56,288 L48,288 L48,280 L48,272 L40,272 L40,280 L40,288 L32,288 L32,280 L32,272 L32,264 L32,256 L32,248 L40,248 L40,256 L40,264 L48,264 L48,256 L48,248 L48,240 L48,232 L48,224 L40,224 L40,232 L40,240 L32,240 L32,232 L32,224 L24,224 L24,232 L24,240 L16,240 L16,232 L16,224 L8,224 L8,232 L8,240 L8,248 L8,256 L8,264 L16,264 L16,256 L16,248 L24,248 L24,256 L24,264 L24,272 L24,280 L24,288 L16,288 L16,280 L16,272 L8,272 L8,280 L8,288 L8,296 L8,304 L8,312 L16,312 L16,304 L16,296 L24,296 L24,304 L24,312 L24,320 L24,328 L24,336 L16,336 L16,328 L16,320 L8,320 L8,328 L8,336 L8,344 L8,352 L8,360 L16,360 L16,352 L16,344 L24,344 L24,352 L24,360 L32,360 L32,352 L32,344 L40,344 L40,352 L40,360 L48,360 L48,352 L48,344 L48,336 L48,328 L48,320 L40,320 L40,328 L40,336 L32,336 L32,328 L32,320 L32,312 L32,304 L32,296 L40,296 L40,304 L40,312 L48,312 L48,304 L48,296 L56,296 L56,304 L56,312 L64,312 L64,304 L64,296 L72,296 L72,304 L72,312 L72,320 L72,328 L72,336 L64,336 L64,328 L64,320 L56,320 L56,328 L56,336 L56,344 L56,352 L56,360 L64,360 L64,352 L64,344 L72,344 L72,352 L72,360 L72,368 L72,376 L72,384 L64,384 L64,376 L64,368 L56,368 L56,376 L56,384 L56,392 L56,400 L56,408 L64,408 L64,400 L64,392 L72,392 L72,400 L72,408 L72,416 L72,424 L72,432 L64,432 L64,424 L64,416 L56,416 L56,424 L56,432 L48,432 L48,424 L48,416 L40,416 L40,424 L40,432 L32,432 L32,424 L32,416 L32,408 L32,400 L32,392 L40,392 L40,400 L40,408 L48,408 L48,400 L48,392 L48,384 L48,376 L48,368 L40,368 L40,376 L40,384 L32,384 L32,376 L32,368 L24,368 L24,376 L24,384 L16,384 L16,376 L16,368 L8,368 L8,376 L8,384 L8,392 L8,400 L8,408 L16,408 L16,400 L16,392 L24,392 L24,400 L24,408 L24,416 L24,424 L24,432 L16,432 L16,424 L16,416 L8,416 L8,424 L8,432 L8,440 L8,448 L8,456 L16,456 L16,448 L16,440 L24,440 L24,448 L24,456 L24,464 L24,472 L24,480 L16,480 L16,472 L16,464 L8,464 L8,472 L8,480 L8,488 L8,496 L8,504 L16,504 L16,496 L16,488 L24,488 L24,496 L24,504 L32,504 L32,496 L32,488 L40,488 L40,496 L40,504 L48,504 L48,496 L48,488 L48,480 L48,472 L48,464 L40,464 L40,472 L40,480 L32,480 L32,472 L32,464 L32,456 L32,448 L32,440 L40,440 L40,448 L40,456 L48,456 L48,448 L48,440 L56,440 L56,448 L56,456 L64,456 L64,448 L64,440 L72,440 L72,448 L72,456 L72,464 L72,472 L72,480 L64,480 L64,472 L64,464 L56,464 L56,472 L56,480 L56,488 L56,496 L56,504 L64,504 L64,496 L64,488 L72,488 L72,496 L72,504 L72,512 L72,520 L72,528 L64,528 L64,520 L64,512 L56,512 L56,520 L56,528 L56,536 L56,544 L56,552 L64,552 L64,544 L64,536 L72,536 L72,544 L72,552 L72,560 L72,568 L72,576 L64,576 L64,568 L64,560 L56,560 L56,568 L56,576 L48,576 L48,568 L48,560 L40,560 L40,568 L40,576 L32,576 L32,568 L32,560 L32,552 L32,544 L32,536 L40,536 L40,544 L40,552 L48,552 L48,544 L48,536 L48,528 L48,520 L48,512 L40,512 L40,520 L40,528 L32,528 L32,520 L32,512 L24,512 L24,520 L24,528 L16,528 L16,520 L16,512 L8,512 L8,520 L8,528 L8,536 L8,544 L8,552 L16,552 L16,544 L16,536 L24,536 L24,544 L24,552 L24,560 L24,568 L24,576 L16,576 L16,568 L16,560 L8,560 L8,568 L8,576 L8,584 L8,592 L8,600 L16,600 L16,592 L16,584 L24,584 L24,592 L24,600 L24,608 L24,616 L24,624 L16,624 L16,616 L16,608 L8,608 L8,616 L8,624 L8,632 L8,640 L8,648 L16,648 L16,640 L16,632 L24,632 L24,640 L24,648 L32,648 L32,640 L32,632 L40,632 L40,640 L40,648 L48,648 L48,640 L48,632 L48,624 L48,616 L48,608 L40,608 L40,616 L40,624 L32,624 L32,616 L32,608 L32,600 L32,592 L32,584 L40,584 L40,592 L40,600 L48,600 L48,592 L48,584 L56,584 L56,592 L56,600 L64,600 L64,592 L64,584 L72,584 L72,592 L72,600 L72,608 L72,616 L72,624 L64,624 L64,616 L64,608 L56,608 L56,616 L56,624 L56,632 L56,640 L56,648 L64,648 L64,640 L64,632 L72,632 L72,640 L72,648 L80,648 L80,640 L80,632 L88,632 L88,640 L88,648 L96,648 L96,640 L96,632 L96,624 L96,616 L96,608 L88,608 L88,616 L88,624 L80,624 L80,616 L80,608 L80,600 L80,592 L80,584 L88,584 L88,592 L88,600 L96,600 L96,592 L96,584 L104,584 L104,592 L104,600 L112,600 L112,592 L112,584 L120,584 L120,592 L120,600 L120,608 L120,616 L120,624 L112,624 L112,616 L112,608 L104,608 L104,616 L104,624 L104,632 L104,640 L104,648 L112,648 L112,640 L112,632 L120,632 L120,640 L120,648 L128,648 L128,640 L128,632 L136,632 L136,640 L136,648 L144,648 L144,640 L144,632 L144,624 L144,616 L144,608 L136,608 L136,616 L136,624 L128,624 L128,616 L128,608 L128,600 L128,592 L128,584 L136,584 L136,592 L136,600 L144,600 L144,592 L144,584 L144,576 L144,568 L144,560 L136,560 L136,568 L136,576 L128,576 L128,568 L128,560 L128,552 L128,544 L128,536 L136,536 L136,544 L136,552 L144,552 L144,544 L144,536 L144,528 L144,520 L144,512 L136,512 L136,520 L136,528 L128,528 L128,520 L128,512 L120,512 L120,520 L120,528 L112,528 L112,520 L112,512 L104,512 L104,520 L104,528 L104,536 L104,544 L104,552 L112,552 L112,544 L112,536 L120,536 L120,544 L120,552 L120,560 L120,568 L120,576 L112,576 L112,568 L112,560 L104,560 L104,568 L104,576 L96,576 L96,568 L96,560 L88,560 L88,568 L88,576 L80,576 L80,568 L80,560 L80,552 L80,544 L80,536 L88,536 L88,544 L88,552 L96,552 L96,544 L96,536 L96,528 L96,520 L96,512 L88,512 L88,520 L88,528 L80,528 L80,520 L80,512 L80,504 L80,496 L80,488 L88,488 L88,496 L88,504 L96,504 L96,496 L96,488 L96,480 L96,472 L96,464 L88,464 L88,472 L88,480 L80,480 L80,472 L80,464 L80,456 L80,448 L80,440 L88,440 L88,448 L88,456 L96,456 L96,448 L96,440 L104,440 L104,448 L104,456 L112,456 L112,448 L112,440 L120,440 L120,448 L120,456 L120,464 L120,472 L120,480 L112,480 L112,472 L112,464 L104,464 L104,472 L104,480 L104,488 L104,496 L104,504 L112,504 L112,496 L112,488 L120,488 L120,496 L120,504 L128,504 L128,496 L128,488 L136,488 L136,496 L136,504 L144,504 L144,496 L144,488 L144,480 L144,472 L144,464 L136,464 L136,472 L136,480 L128,480 L128,472 L128,464 L128,456 L128,448 L128,440 L136,440 L136,448 L136,456 L144,456 L144,448 L144,440 L152,440 L152,448 L152,456 L160,456 L160,448 L160,440 L168,440 L168,448 L168,456 L168,464 L168,472 L168,480 L160,480 L160,472 L160,464 L152,464 L152,472 L152,480 L152,488 L152,496 L152,504 L160,504 L160,496 L160,488 L168,488 L168,496 L168,504 L176,504 L176,496 L176,488 L184,488 L184,496 L184,504 L192,504 L192,496 L192,488 L192,480 L192,472 L192,464 L184,464 L184,472 L184,480 L176,480 L176,472 L176,464 L176,456 L176,448 L176,440 L184,440 L184,448 L184,456 L192,456 L192,448 L192,440 L200,440 L200,448 L200,456 L208,456 L208,448 L208,440 L216,440 L216,448 L216,456 L216,464 L216,472 L216,480 L208,480 L208,472 L208,464 L200,464 L200,472 L200,480 L200,488 L200,496 L200,504 L208,504 L208,496 L208,488 L216,488 L216,496 L216,504 L216,512 L216,520 L216,528 L208,528 L208,520 L208,512 L200,512 L200,520 L200,528 L200,536 L200,544 L200,552 L208,552 L208,544 L208,536 L216,536 L216,544 L216,552 L216,560 L216,568 L216,576 L208,576 L208,568 L208,560 L200,560 L200,568 L200,576 L192,576 L192,568 L192,560 L184,560 L184,568 L184,576 L176,576 L176,568 L176,560 L176,552 L176,544 L176,536 L184,536 L184,544 L184,552 L192,552 L192,544 L192,536 L192,528 L192,520 L192,512 L184,512 L184,520 L184,528 L176,528 L176,520 L176,512 L168,512 L168,520 L168,528 L160,528 L160,520 L160,512 L152,512 L152,520 L152,528 L152,536 L152,544 L152,552 L160,552 L160,544 L160,536 L168,536 L168,544 L168,552 L168,560 L168,568 L168,576 L160,576 L160,568 L160,560 L152,560 L152,568 L152,576 L152,584 L152,592 L152,600 L160,600 L160,592 L160,584 L168,584 L168,592 L168,600 L168,608 L168,616 L168,624 L160,624 L160,616 L160,608 L152,608 L152,616 L152,624 L152,632 L152,640 L152,648 L160,648 L160,640 L160,632 L168,632 L168,640 L168,648 L176,648 L176,640 L176,632 L184,632 L184,640 L184,648 L192,648 L192,640 L192,632 L192,624 L192,616 L192,608 L184,608 L184,616 L184,624 L176,624 L176,616 L176,608 L176,600 L176,592 L176,584 L184,584 L184,592 L184,600 L192,600 L192,592 L192,584 L200,584 L200,592 L200,600 L208,600 L208,592 L208,584 L216,584 L216,592 L216,600 L216,608 L216,616 L216,624 L208,624 L208,616 L208,608 L200,608 L200,616 L200,624 L200,632 L200,640 L200,648 L208,648 L208,640 L208,632 L216,632 L216,640 L216,648 L224,648 L224,640 L224,632 L232,632 L232,640 L232,648 L240,648 L240,640 L240,632 L240,624 L240,616 L240,608 L232,608 L232,616 L232,624 L224,624 L224,616 L224,608 L224,600 L224,592 L224,584 L232,584 L232,592 L232,600 L240,600 L240,592 L240,584 L248,584 L248,592 L248,600 L256,600 L256,592 L256,584 L264,584 L264,592 L264,600 L264,608 L264,616 L264,624 L256,624 L256,616 L256,608 L248,608 L248,616 L248,624 L248,632 L248,640 L248,648 L256,648 L256,640 L256,632 L264,632 L264,640 L264,648 L272,648 L272,640 L272,632 L280,632 L280,640 L280,648 L288,648 L288,640 L288,632 L288,624 L288,616 L288,608 L280,608 L280,616 L280,624 L272,624 L272,616 L272,608 L272,600 L272,592 L272,584 L280,584 L280,592 L280,600 L288,600 L288,592 L288,584 L288,576 L288,568 L288,560 L280,560 L280,568 L280,576 L272,576 L272,568 L272,560 L272,552 L272,544 L272,536 L280,536 L280,544 L280,552 L288,552 L288,544 L288,536 L288,528 L288,520 L288,512 L280,512 L280,520 L280,528 L272,528 L272,520 L272,512 L264,512 L264,520 L264,528 L256,528 L256,520 L256,512 L248,512 L248,520 L248,528 L248,536 L248,544 L248,552 L256,552 L256,544 L256,536 L264,536 L264,544 L264,552 L264,560 L264,568 L264,576 L256,576 L256,568 L256,560 L248,560 L248,568 L248,576 L240,576 L240,568 L240,560 L232,560 L232,568 L232,576 L224,576 L224,568 L224,560 L224,552 L224,544 L224,536 L232,536 L232,544 L232,552 L240,552 L240,544 L240,536 L240,528 L240,520 L240,512 L232,512 L232,520 L232,528 L224,528 L224,520 L224,512 L224,504 L224,496 L224,488 L232,488 L232,496 L232,504 L240,504 L240,496 L240,488 L240,480 L240,472 L240,464 L232,464 L232,472 L232,480 L224,480 L224,472 L224,464 L224,456 L224,448 L224,440 L232,440 L232,448 L232,456 L240,456 L240,448 L240,440 L248,440 L248,448 L248,456 L256,456 L256,448 L256,440 L264,440 L264,448 L264,456 L264,464 L264,472 L264,480 L256,480 L256,472 L256,464 L248,464 L248,472 L248,480 L248,488 L248,496 L248,504 L256,504 L256,496 L256,488 L264,488 L264,496 L264,504 L272,504 L272,496 L272,488 L280,488 L280,496 L280,504 L288,504 L288,496 L288,488 L288,480 L288,472 L288,464 L280,464 L280,472 L280,480 L272,480 L272,472 L272,464 L272,456 L272,448 L272,440 L280,440 L280,448 L280,456 L288,456 L288,448 L288,440 L296,440 L296,448 L296,456 L304,456 L304,448 L304,440 L312,440 L312,448 L312,456 L312,464 L312,472 L312,480 L304,480 L304,472 L304,464 L296,464 L296,472 L296,480 L296,488 L296,496 L296,504 L304,504 L304,496 L304,488 L312,488 L312,496 L312,504 L320,504 L320,496 L320,488 L328,488 L328,496 L328,504 L336,504 L336,496 L336,488 L336,480 L336,472 L336,464 L328,464 L328,472 L328,480 L320,480 L320,472 L320,464 L320,456 L320,448 L320,440 L328,440 L328,448 L328,456 L336,456 L336,448 L336,440 L344,440 L344,448 L344,456 L352,456 L352,448 L352,440 L360,440 L360,448 L360,456 L360,464 L360,472 L360,480 L352,480 L352,472 L352,464 L344,464 L344,472 L344,480 L344,488 L344,496 L344,504 L352,504 L352,496 L352,488 L360,488 L360,496 L360,504 L360,512 L360,520 L360,528 L352,528 L352,520 L352,512 L344,512 L344,520 L344,528 L344,536 L344,544 L344,552 L352,552 L352,544 L352,536 L360,536 L360,544 L360,552 L360,560 L360,568 L360,576 L352,576 L352,568 L352,560 L344,560 L344,568 L344,576 L336,576 L336,568 L336,560 L328,560 L328,568 L328,576 L320,576 L320,568 L320,560 L320,552 L320,544 L320,536 L328,536 L328,544 L328,552 L336,552 L336,544 L336,536 L336,528 L336,520 L336,512 L328,512 L328,520 L328,528 L320,528 L320,520 L320,512 L312,512 L312,520 L312,528 L304,528 L304,520 L304,512 L296,512 L296,520 L296,528 L296,536 L296,544 L296,552 L304,552 L304,544 L304,536 L312,536 L312,544 L312,552 L312,560 L312,568 L312,576 L304,576 L304,568 L304,560 L296,560 L296,568 L296,576 L296,584 L296,592 L296,600 L304,600 L304,592 L304,584 L312,584 L312,592 L312,600 L312,608 L312,616 L312,624 L304,624 L304,616 L304,608 L296,608 L296,616 L296,624 L296,632 L296,640 L296,648 L304,648 L304,640 L304,632 L312,632 L312,640 L312,648 L320,648 L320,640 L320,632 L328,632 L328,640 L328,648 L336,648 L336,640 L336,632 L336,624 L336,616 L336,608 L328,608 L328,616 L328,624 L320,624 L320,616 L320,608 L320,600 L320,592 L320,584 L328,584 L328,592 L328,600 L336,600 L336,592 L336,584 L344,584 L344,592 L344,600 L352,600 L352,592 L352,584 L360,584 L360,592 L360,600 L360,608 L360,616 L360,624 L352,624 L352,616 L352,608 L344,608 L344,616 L344,624 L344,632 L344,640 L344,648 L352,648 L352,640 L352,632 L360,632 L360,640 L360,648 L368,648 L368,640 L368,632 L376,632 L376,640 L376,648 L384,648 L384,640 L384,632 L384,624 L384,616 L384,608 L376,608 L376,616 L376,624 L368,624 L368,616 L368,608 L368,600 L368,592 L368,584 L376,584 L376,592 L376,600 L384,600 L384,592 L384,584 L392,584 L392,592 L392,600 L400,600 L400,592 L400,584 L408,584 L408,592 L408,600 L408,608 L408,616 L408,624 L400,624 L400,616 L400,608 L392,608 L392,616 L392,624 L392,632 L392,640 L392,648 L400,648 L400,640 L400,632 L408,632 L408,640 L408,648 L416,648 L416,640 L416,632 L424,632 L424,640 L424,648 L432,648 L432,640 L432,632 L432,624 L432,616 L432,608 L424,608 L424,616 L424,624 L416,624 L416,616 L416,608 L416,600 L416,592 L416,584 L424,584 L424,592 L424,600 L432,600 L432,592 L432,584 L432,576 L432,568 L432,560 L424,560 L424,568 L424,576 L416,576 L416,568 L416,560 L416,552 L416,544 L416,536 L424,536 L424,544 L424,552 L432,552 L432,544 L432,536 L432,528 L432,520 L432,512 L424,512 L424,520 L424,528 L416,528 L416,520 L416,512 L408,512 L408,520 L408,528 L400,528 L400,520 L400,512 L392,512 L392,520 L392,528 L392,536 L392,544 L392,552 L400,552 L400,544 L400,536 L408,536 L408,544 L408,552 L408,560 L408,568 L408,576 L400,576 L400,568 L400,560 L392,560 L392,568 L392,576 L384,576 L384,568 L384,560 L376,560 L376,568 L376,576 L368,576 L368,568 L368,560 L368,552 L368,544 L368,536 L376,536 L376,544 L376,552 L384,552 L384,544 L384,536 L384,528 L384,520 L384,512 L376,512 L376,520 L376,528 L368,528 L368,520 L368,512 L368,504 L368,496 L368,488 L376,488 L376,496 L376,504 L384,504 L384,496 L384,488 L384,480 L384,472 L384,464 L376,464 L376,472 L376,480 L368,480 L368,472 L368,464 L368,456 L368,448 L368,440 L376,440 L376,448 L376,456 L384,456 L384,448 L384,440 L392,440 L392,448 L392,456 L400,456 L400,448 L400,440 L408,440 L408,448 L408,456 L408,464 L408,472 L408,480 L400,480 L400,472 L400,464 L392,464 L392,472 L392,480 L392,488 L392,496 L392,504 L400,504 L400,496 L400,488 L408,488 L408,496 L408,504 L416,504 L416,496 L416,488 L424,488 L424,496 L424,504 L432,504 L432,496 L432,488 L432,480 L432,472 L432,464 L424,464 L424,472 L424,480 L416,480 L416,472 L416,464 L416,456 L416,448 L416,440 L424,440 L424,448 L424,456 L432,456 L432,448 L432,440 L432,432 L432,424 L432,416 L424,416 L424,424 L424,432 L416,432 L416,424 L416,416 L416,408 L416,400 L416,392 L424,392 L424,400 L424,408 L432,408 L432,400 L432,392 L432,384 L432,376 L432,368 L424,368 L424,376 L424,384 L416,384 L416,376 L416,368 L408,368 L408,376 L408,384 L400,384 L400,376 L400,368 L392,368 L392,376 L392,384 L392,392 L392,400 L392,408 L400,408 L400,400 L400,392 L408,392 L408,400 L408,408 L408,416 L408,424 L408,432 L400,432 L400,424 L400,416 L392,416 L392,424 L392,432 L384,432 L384,424 L384,416 L376,416 L376,424 L376,432 L368,432 L368,424 L368,416 L368,408 L368,400 L368,392 L376,392 L376,400 L376,408 L384,408 L384,400 L384,392 L384,384 L384,376 L384,368 L376,368 L376,376 L376,384 L368,384 L368,376 L368,368 L368,360 L368,352 L368,344 L376,344 L376,352 L376,360 L384,360 L384,352 L384,344 L384,336 L384,328 L384,320 L376,320 L376,328 L376,336 L368,336 L368,328 L368,320 L368,312 L368,304 L368,296 L376,296 L376,304 L376,312 L384,312 L384,304 L384,296 L392,296 L392,304 L392,312 L400,312 L400,304 L400,296 L408,296 L408,304 L408,312 L408,320 L408,328 L408,336 L400,336 L400,328 L400,320 L392,320 L392,328 L392,336 L392,344 L392,352 L392,360 L400,360 L400,352 L400,344 L408,344 L408,352 L408,360 L416,360 L416,352 L416,344 L424,344 L424,352 L424,360 L432,360 L432,352 L432,344 L432,336 L432,328 L432,320 L424,320 L424,328 L424,336 L416,336 L416,328 L416,320 L416,312 L416,304 L416,296 L424,296 L424,304 L424,312 L432,312 L432,304 L432,296 L432,288 L432,280 L432,272 L424,272 L424,280 L424,288 L416,288 L416,280 L416,272 L416,264 L416,256 L416,248 L424,248 L424,256 L424,264 L432,264 L432,256 L432,248 L432,240 L432,232 L432,224 L424,224 L424,232 L424,240 L416,240 L416,232 L416,224 L408,224 L408,232 L408,240 L400,240 L400,232 L400,224 L392,224 L392,232 L392,240 L392,248 L392,256 L392,264 L400,264 L400,256 L400,248 L408,248 L408,256 L408,264 L408,272 L408,280 L408,288 L400,288 L400,280 L400,272 L392,272 L392,280 L392,288 L384,288 L384,280 L384,272 L376,272 L376,280 L376,288 L368,288 L368,280 L368,272 L368,264 L368,256 L368,248 L376,248 L376,256 L376,264 L384,264 L384,256 L384,248 L384,240 L384,232 L384,224 L376,224 L376,232 L376,240 L368,240 L368,232 L368,224 L360,224 L360,232 L360,240 L352,240 L352,232 L352,224 L344,224 L344,232 L344,240 L344,248 L344,256 L344,264 L352,264 L352,256 L352,248 L360,248 L360,256 L360,264 L360,272 L360,280 L360,288 L352,288 L352,280 L352,272 L344,272 L344,280 L344,288 L336,288 L336,280 L336,272 L328,272 L328,280 L328,288 L320,288 L320,280 L320,272 L320,264 L320,256 L320,248 L328,248 L328,256 L328,264 L336,264 L336,256 L336,248 L336,240 L336,232 L336,224 L328,224 L328,232 L328,240 L320,240 L320,232 L320,224 L312,224 L312,232 L312,240 L304,240 L304,232 L304,224 L296,224 L296,232 L296,240 L296,248 L296,256 L296,264 L304,264 L304,256 L304,248 L312,248 L312,256 L312,264 L312,272 L312,280 L312,288 L304,288 L304,280 L304,272 L296,272 L296,280 L296,288 L296,296 L296,304 L296,312 L304,312 L304,304 L304,296 L312,296 L312,304 L312,312 L312,320 L312,328 L312,336 L304,336 L304,328 L304,320 L296,320 L296,328 L296,336 L296,344 L296,352 L296,360 L304,360 L304,352 L304,344 L312,344 L312,352 L312,360 L320,360 L320,352 L320,344 L328,344 L328,352 L328,360 L336,360 L336,352 L336,344 L336,336 L336,328 L336,320 L328,320 L328,328 L328,336 L320,336 L320,328 L320,320 L320,312 L320,304 L320,296 L328,296 L328,304 L328,312 L336,312 L336,304 L336,296 L344,296 L344,304 L344,312 L352,312 L352,304 L352,296 L360,296 L360,304 L360,312 L360,320 L360,328 L360,336 L352,336 L352,328 L352,320 L344,320 L344,328 L344,336 L344,344 L344,352 L344,360 L352,360 L352,352 L352,344 L360,344 L360,352 L360,360 L360,368 L360,376 L360,384 L352,384 L352,376 L352,368 L344,368 L344,376 L344,384 L344,392 L344,400 L344,408 L352,408 L352,400 L352,392 L360,392 L360,400 L360,408 L360,416 L360,424 L360,432 L352,432 L352,424 L352,416 L344,416 L344,424 L344,432 L336,432 L336,424 L336,416 L328,416 L328,424 L328,432 L320,432 L320,424 L320,416 L320,408 L320,400 L320,392 L328,392 L328,400 L328,408 L336,408 L336,400 L336,392 L336,384 L336,376 L336,368 L328,368 L328,376 L328,384 L320,384 L320,376 L320,368 L312,368 L312,376 L312,384 L304,384 L304,376 L304,368 L296,368 L296,376 L296,384 L296,392 L296,400 L296,408 L304,408 L304,400 L304,392 L312,392 L312,400 L312,408 L312,416 L312,424 L312,432 L304,432 L304,424 L304,416 L296,416 L296,424 L296,432 L288,432 L288,424 L288,416 L280,416 L280,424 L280,432 L272,432 L272,424 L272,416 L272,408 L272,400 L272,392 L280,392 L280,400 L280,408 L288,408 L288,400 L288,392 L288,384 L288,376 L288,368 L280,368 L280,376 L280,384 L272,384 L272,376 L272,368 L264,368 L264,376 L264,384 L256,384 L256,376 L256,368 L248,368 L248,376 L248,384 L248,392 L248,400 L248,408 L256,408 L256,400 L256,392 L264,392 L264,400 L264,408 L264,416 L264,424 L264,432 L256,432 L256,424 L256,416 L248,416 L248,424 L248,432 L240,432 L240,424 L240,416 L232,416 L232,424 L232,432 L224,432 L224,424 L224,416 L224,408 L224,400 L224,392 L232,392 L232,400 L232,408 L240,408 L240,400 L240,392 L240,384 L240,376 L240,368 L232,368 L232,376 L232,384 L224,384 L224,376 L224,368 L224,360 L224,352 L224,344 L232,344 L232,352 L232,360 L240,360 L240,352 L240,344 L240,336 L240,328 L240,320 L232,320 L232,328 L232,336 L224,336 L224,328 L224,320 L224,312 L224,304 L224,296 L232,296 L232,304 L232,312 L240,312 L240,304 L240,296 L248,296 L248,304 L248,312 L256,312 L256,304 L256,296 L264,296 L264,304 L264,312 L264,320 L264,328 L264,336 L256,336 L256,328 L256,320 L248,320 L248,328 L248,336 L248,344 L248,352 L248,360 L256,360 L256,352 L256,344 L264,344 L264,352 L264,360 L272,360 L272,352 L272,344 L280,344 L280,352 L280,360 L288,360 L288,352 L288,344 L288,336 L288,328 L288,320 L280,320 L280,328 L280,336 L272,336 L272,328 L272,320 L272,312 L272,304 L272,296 L280,296 L280,304 L280,312 L288,312 L288,304 L288,296 L288,288 L288,280 L288,272 L280,272 L280,280 L280,288 L272,288 L272,280 L272,272 L272,264 L272,256 L272,248 L280,248 L280,256 L280,264 L288,264 L288,256 L288,248 L288,240 L288,232 L288,224 L280,224 L280,232 L280,240 L272,240 L272,232 L272,224 L264,224 L264,232 L264,240 L256,240 L256,232 L256,224 L248,224 L248,232 L248,240 L248,248 L248,256 L248,264 L256,264 L256,256 L256,248 L264,248 L264,256 L264,264 L264,272 L264,280 L264,288 L256,288 L256,280 L256,272 L248,272 L248,280 L248,288 L240,288 L240,280 L240,272 L232,272 L232,280 L232,288 L224,288 L224,280 L224,272 L224,264 L224,256 L224,248 L232,248 L232,256 L232,264 L240,264 L240,256 L240,248 L240,240 L240,232 L240,224 L232,224 L232,232 L232,240 L224,240 L224,232 L224,224 L224,216 L224,208 L224,200 L232,200 L232,208 L232,216 L240,216 L240,208 L240,200 L240,192 L240,184 L240,176 L232,176 L232,184 L232,192 L224,192 L224,184 L224,176 L224,168 L224,160 L224,152 L232,152 L232,160 L232,168 L240,168 L240,160 L240,152 L248,152 L248,160 L248,168 L256,168 L256,160 L256,152 L264,152 L264,160 L264,168 L264,176 L264,184 L264,192 L256,192 L256,184 L256,176 L248,176 L248,184 L248,192 L248,200 L248,208 L248,216 L256,216 L256,208 L256,200 L264,200 L264,208 L264,216 L272,216 L272,208 L272,200 L280,200 L280,208 L280,216 L288,216 L288,208 L288,200 L288,192 L288,184 L288,176 L280,176 L280,184 L280,192 L272,192 L272,184 L272,176 L272,168 L272,160 L272,152 L280,152 L280,160 L280,168 L288,168 L288,160 L288,152 L288,144 L288,136 L288,128 L280,128 L280,136 L280,144 L272,144 L272,136 L272,128 L272,120 L272,112 L272,104 L280,104 L280,112 L280,120 L288,120 L288,112 L288,104 L288,96 L288,88 L288,80 L280,80 L280,88 L280,96 L272,96 L272,88 L272,80 L264,80 L264,88 L264,96 L256,96 L256,88 L256,80 L248,80 L248,88 L248,96 L248,104 L248,112 L248,120 L256,120 L256,112 L256,104 L264,104 L264,112 L264,120 L264,128 L264,136 L264,144 L256,144 L256,136 L256,128 L248,128 L248,136 L248,144 L240,144 L240,136 L240,128 L232,128 L232,136 L232,144 L224,144 L224,136 L224,128 L224,120 L224,112 L224,104 L232,104 L232,112 L232,120 L240,120 L240,112 L240,104 L240,96 L240,88 L240,80 L232,80 L232,88 L232,96 L224,96 L224,88 L224,80 L224,72 L224,64 L224,56 L232,56 L232,64 L232,72 L240,72 L240,64 L240,56 L240,48 L240,40 L240,32 L232,32 L232,40 L232,48 L224,48 L224,40 L224,32 L224,24 L224,16 L224,8 L232,8 L232,16 L232,24 L240,24 L240,16 L240,8 L248,8 L248,16 L248,24 L256,24 L256,16 L256,8 L264,8 L264,16 L264,24 L264,32 L264,40 L264,48 L256,48 L256,40 L256,32 L248,32 L248,40 L248,48 L248,56 L248,64 L248,72 L256,72 L256,64 L256,56 L264,56 L264,64 L264,72 L272,72 L272,64 L272,56 L280,56 L280,64 L280,72 L288,72 L288,64 L288,56 L288,48 L288,40 L288,32 L280,32 L280,40 L280,48 L272,48 L272,40 L272,32 L272,24 L272,16 L272,8 L280,8 L280,16 L280,24 L288,24 L288,16 L288,8 L296,8 L296,16 L296,24 L304,24 L304,16 L304,8 L312,8 L312,16 L312,24 L312,32 L312,40 L312,48 L304,48 L304,40 L304,32 L296,32 L296,40 L296,48 L296,56 L296,64 L296,72 L304,72 L304,64 L304,56 L312,56 L312,64 L312,72 L320,72 L320,64 L320,56 L328,56 L328,64 L328,72 L336,72 L336,64 L336,56 L336,48 L336,40 L336,32 L328,32 L328,40 L328,48 L320,48 L320,40 L320,32 L320,24 L320,16 L320,8 L328,8 L328,16 L328,24 L336,24 L336,16 L336,8 L344,8 L344,16 L344,24 L352,24 L352,16 L352,8 L360,8 L360,16 L360,24 L360,32 L360,40 L360,48 L352,48 L352,40 L352,32 L344,32 L344,40 L344,48 L344,56 L344,64 L344,72 L352,72 L352,64 L352,56 L360,56 L360,64 L360,72 L360,80 L360,88 L360,96 L352,96 L352,88 L352,80 L344,80 L344,88 L344,96 L344,104 L344,112 L344,120 L352,120 L352,112 L352,104 L360,104 L360,112 L360,120 L360,128 L360,136 L360,144 L352,144 L352,136 L352,128 L344,128 L344,136 L344,144 L336,144 L336,136 L336,128 L328,128 L328,136 L328,144 L320,144 L320,136 L320,128 L320,120 L320,112 L320,104 L328,104 L328,112 L328,120 L336,120 L336,112 L336,104 L336,96 L336,88 L336,80 L328,80 L328,88 L328,96 L320,96 L320,88 L320,80 L312,80 L312,88 L312,96 L304,96 L304,88 L304,80 L296,80 L296,88 L296,96 L296,104 L296,112 L296,120 L304,120 L304,112 L304,104 L312,104 L312,112 L312,120 L312,128 L312,136 L312,144 L304,144 L304,136 L304,128 L296,128 L296,136 L296,144 L296,152 L296,160 L296,168 L304,168 L304,160 L304,152 L312,152 L312,160 L312,168 L312,176 L312,184 L312,192 L304,192 L304,184 L304,176 L296,176 L296,184 L296,192 L296,200 L296,208 L296,216 L304,216 L304,208 L304,200 L312,200 L312,208 L312,216 L320,216 L320,208 L320,200 L328,200 L328,208 L328,216 L336,216 L336,208 L336,200 L336,192 L336,184 L336,176 L328,176 L328,184 L328,192 L320,192 L320,184 L320,176 L320,168 L320,160 L320,152 L328,152 L328,160 L328,168 L336,168 L336,160 L336,152 L344,152 L344,160 L344,168 L352,168 L352,160 L352,152 L360,152 L360,160 L360,168 L360,176 L360,184 L360,192 L352,192 L352,184 L352,176 L344,176 L344,184 L344,192 L344,200 L344,208 L344,216 L352,216 L352,208 L352,200 L360,200 L360,208 L360,216 L368,216 L368,208 L368,200 L376,200 L376,208 L376,216 L384,216 L384,208 L384,200 L384,192 L384,184 L384,176 L376,176 L376,184 L376,192 L368,192 L368,184 L368,176 L368,168 L368,160 L368,152 L376,152 L376,160 L376,168 L384,168 L384,160 L384,152 L392,152 L392,160 L392,168 L400,168 L400,160 L400,152 L408,152 L408,160 L408,168 L408,176 L408,184 L408,192 L400,192 L400,184 L400,176 L392,176 L392,184 L392,192 L392,200 L392,208 L392,216 L400,216 L400,208 L400,200 L408,200 L408,208 L408,216 L416,216 L416,208 L416,200 L424,200 L424,208 L424,216 L432,216 L432,208 L432,200 L432,192 L432,184 L432,176 L424,176 L424,184 L424,192 L416,192 L416,184 L416,176 L416,168 L416,160 L416,152 L424,152 L424,160 L424,168 L432,168 L432,160 L432,152 L432,144 L432,136 L432,128 L424,128 L424,136 L424,144 L416,144 L416,136 L416,128 L416,120 L416,112 L416,104 L424,104 L424,112 L424,120 L432,120 L432,112 L432,104 L432,96 L432,88 L432,80 L424,80 L424,88 L424,96 L416,96 L416,88 L416,80 L408,80 L408,88 L408,96 L400,96 L400,88 L400,80 L392,80 L392,88 L392,96 L392,104 L392,112 L392,120 L400,120 L400,112 L400,104 L408,104 L408,112 L408,120 L408,128 L408,136 L408,144 L400,144 L400,136 L400,128 L392,128 L392,136 L392,144 L384,144 L384,136 L384,128 L376,128 L376,136 L376,144 L368,144 L368,136 L368,128 L368,120 L368,112 L368,104 L376,104 L376,112 L376,120 L384,120 L384,112 L384,104 L384,96 L384,88 L384,80 L376,80 L376,88 L376,96 L368,96 L368,88 L368,80 L368,72 L368,64 L368,56 L376,56 L376,64 L376,72 L384,72 L384,64 L384,56 L384,48 L384,40 L384,32 L376,32 L376,40 L376,48 L368,48 L368,40 L368,32 L368,24 L368,16 L368,8 L376,8 L376,16 L376,24 L384,24 L384,16 L384,8 L392,8 L392,16 L392,24 L400,24 L400,16 L400,8 L408,8 L408,16 L408,24 L408,32 L408,40 L408,48 L400,48 L400,40 L400,32 L392,32 L392,40 L392,48 L392,56 L392,64 L392,72 L400,72 L400,64 L400,56 L408,56 L408,64 L408,72 L416,72 L416,64 L416,56 L424,56 L424,64 L424,72 L432,72 L432,64 L432,56 L432,48 L432,40 L432,32 L424,32 L424,40 L424,48 L416,48 L416,40 L416,32 L416,24 L416,16 L416,8 L424,8 L424,16 L424,24 L432,24 L432,16 L432,8 L440,8 L440,16 L440,24 L448,24 L448,16 L448,8 L456,8 L456,16 L456,24 L456,32 L456,40 L456,48 L448,48 L448,40 L448,32 L440,32 L440,40 L440,48 L440,56 L440,64 L440,72 L448,72 L448,64 L448,56 L456,56 L456,64 L456,72 L464,72 L464,64 L464,56 L472,56 L472,64 L472,72 L480,72 L480,64 L480,56 L480,48 L480,40 L480,32 L472,32 L472,40 L472,48 L464,48 L464,40 L464,32 L464,24 L464,16 L464,8 L472,8 L472,16 L472,24 L480,24 L480,16 L480,8 L488,8 L488,16 L488,24 L496,24 L496,16 L496,8 L504,8 L504,16 L504,24 L504,32 L504,40 L504,48 L496,48 L496,40 L496,32 L488,32 L488,40 L488,48 L488,56 L488,64 L488,72 L496,72 L496,64 L496,56 L504,56 L504,64 L504,72 L504,80 L504,88 L504,96 L496,96 L496,88 L496,80 L488,80 L488,88 L488,96 L488,104 L488,112 L488,120 L496,120 L496,112 L496,104 L504,104 L504,112 L504,120 L504,128 L504,136 L504,144 L496,144 L496,136 L496,128 L488,128 L488,136 L488,144 L480,144 L480,136 L480,128 L472,128 L472,136 L472,144 L464,144 L464,136 L464,128 L464,120 L464,112 L464,104 L472,104 L472,112 L472,120 L480,120 L480,112 L480,104 L480,96 L480,88 L480,80 L472,80 L472,88 L472,96 L464,96 L464,88 L464,80 L456,80 L456,88 L456,96 L448,96 L448,88 L448,80 L440,80 L440,88 L440,96 L440,104 L440,112 L440,120 L448,120 L448,112 L448,104 L456,104 L456,112 L456,120 L456,128 L456,136 L456,144 L448,144 L448,136 L448,128 L440,128 L440,136 L440,144 L440,152 L440,160 L440,168 L448,168 L448,160 L448,152 L456,152 L456,160 L456,168 L456,176 L456,184 L456,192 L448,192 L448,184 L448,176 L440,176 L440,184 L440,192 L440,200 L440,208 L440,216 L448,216 L448,208 L448,200 L456,200 L456,208 L456,216 L464,216 L464,208 L464,200 L472,200 L472,208 L472,216 L480,216 L480,208 L480,200 L480,192 L480,184 L480,176 L472,176 L472,184 L472,192 L464,192 L464,184 L464,176 L464,168 L464,160 L464,152 L472,152 L472,160 L472,168 L480,168 L480,160 L480,152 L488,152 L488,160 L488,168 L496,168 L496,160 L496,152 L504,152 L504,160 L504,168 L504,176 L504,184 L504,192 L496,192 L496,184 L496,176 L488,176 L488,184 L488,192 L488,200 L488,208 L488,216 L496,216 L496,208 L496,200 L504,200 L504,208 L504,216 L512,216 L512,208 L512,200 L520,200 L520,208 L520,216 L528,216 L528,208 L528,200 L528,192 L528,184 L528,176 L520,176 L520,184 L520,192 L512,192 L512,184 L512,176 L512,168 L512,160 L512,152 L520,152 L520,160 L520,168 L528,168 L528,160 L528,152 L536,152 L536,160 L536,168 L544,168 L544,160 L544,152 L552,152 L552,160 L552,168 L552,176 L552,184 L552,192 L544,192 L544,184 L544,176 L536,176 L536,184 L536,192 L536,200 L536,208 L536,216 L544,216 L544,208 L544,200 L552,200 L552,208 L552,216 L560,216 L560,208 L560,200 L568,200 L568,208 L568,216 L576,216 L576,208 L576,200 L576,192 L576,184 L576,176 L568,176 L568,184 L568,192 L560,192 L560,184 L560,176 L560,168 L560,160 L560,152 L568,152 L568,160 L568,168 L576,168 L576,160 L576,152 L576,144 L576,136 L576,128 L568,128 L568,136 L568,144 L560,144 L560,136 L560,128 L560,120 L560,112 L560,104 L568,104 L568,112 L568,120 L576,120 L576,112 L576,104 L576,96 L576,88 L576,80 L568,80 L568,88 L568,96 L560,96 L560,88 L560,80 L552,80 L552,88 L552,96 L544,96 L544,88 L544,80 L536,80 L536,88 L536,96 L536,104 L536,112 L536,120 L544,120 L544,112 L544,104 L552,104 L552,112 L552,120 L552,128 L552,136 L552,144 L544,144 L544,136 L544,128 L536,128 L536,136 L536,144 L528,144 L528,136 L528,128 L520,128 L520,136 L520,144 L512,144 L512,136 L512,128 L512,120 L512,112 L512,104 L520,104 L520,112 L520,120 L528,120 L528,112 L528,104 L528,96 L528,88 L528,80 L520,80 L520,88 L520,96 L512,96 L512,88 L512,80 L512,72 L512,64 L512,56 L520,56 L520,64 L520,72 L528,72 L528,64 L528,56 L528,48 L528,40 L528,32 L520,32 L520,40 L520,48 L512,48 L512,40 L512,32 L512,24 L512,16 L512,8 L520,8 L520,16 L520,24 L528,24 L528,16 L528,8 L536,8 L536,16 L536,24 L544,24 L544,16 L544,8 L552,8 L552,16 L552,24 L552,32 L552,40 L552,48 L544,48 L544,40 L544,32 L536,32 L536,40 L536,48 L536,56 L536,64 L536,72 L544,72 L544,64 L544,56 L552,56 L552,64 L552,72 L560,72 L560,64 L560,56 L568,56 L568,64 L568,72 L576,72 L576,64 L576,56 L576,48 L576,40 L576,32 L568,32 L568,40 L568,48 L560,48 L560,40 L560,32 L560,24 L560,16 L560,8 L568,8 L568,16 L568,24 L576,24 L576,16 L576,8 L584,8 L584,16 L584,24 L592,24 L592,16 L592,8 L600,8 L600,16 L600,24 L600,32 L600,40 L600,48 L592,48 L592,40 L592,32 L584,32 L584,40 L584,48 L584,56 L584,64 L584,72 L592,72 L592,64 L592,56 L600,56 L600,64 L600,72 L608,72 L608,64 L608,56 L616,56 L616,64 L616,72 L624,72 L624,64 L624,56 L624,48 L624,40 L624,32 L616,32 L616,40 L616,48 L608,48 L608,40 L608,32 L608,24 L608,16 L608,8 L616,8 L616,16 L616,24 L624,24 L624,16 L624,8 L632,8 L632,16 L632,24 L640,24 L640,16 L640,8 L648,8 L648,16 L648,24 L648,32 L648,40 L648,48 L640,48 L640,40 L640,32 L632,32 L632,40 L632,48 L632,56 L632,64 L632,72 L640,72 L640,64 L640,56 L648,56 L648,64 L648,72 L648,80 L648,88 L648,96 L640,96 L640,88 L640,80 L632,80 L632,88 L632,96 L632,104 L632,112 L632,120 L640,120 L640,112 L640,104 L648,104 L648,112 L648,120 L648,128 L648,136 L648,144 L640,144 L640,136 L640,128 L632,128 L632,136 L632,144 L624,144 L624,136 L624,128 L616,128 L616,136 L616,144 L608,144 L608,136 L608,128 L608,120 L608,112 L608,104 L616,104 L616,112 L616,120 L624,120 L624,112 L624,104 L624,96 L624,88 L624,80 L616,80 L616,88 L616,96 L608,96 L608,88 L608,80 L600,80 L600,88 L600,96 L592,96 L592,88 L592,80 L584,80 L584,88 L584,96 L584,104 L584,112 L584,120 L592,120 L592,112 L592,104 L600,104 L600,112 L600,120 L600,128 L600,136 L600,144 L592,144 L592,136 L592,128 L584,128 L584,136 L584,144 L584,152 L584,160 L584,168 L592,168 L592,160 L592,152 L600,152 L600,160 L600,168 L600,176 L600,184 L600,192 L592,192 L592,184 L592,176 L584,176 L584,184 L584,192 L584,200 L584,208 L584,216 L592,216 L592,208 L592,200 L600,200 L600,208 L600,216 L608,216 L608,208 L608,200 L616,200 L616,208 L616,216 L624,216 L624,208 L624,200 L624,192 L624,184 L624,176 L616,176 L616,184 L616,192 L608,192 L608,184 L608,176 L608,168 L608,160 L608,152 L616,152 L616,160 L616,168 L624,168 L624,160 L624,152 L632,152 L632,160 L632,168 L640,168 L640,160 L640,152 L648,152 L648,160 L648,168 L648,176 L648,184 L648,192 L640,192 L640,184 L640,176 L632,176 L632,184 L632,192 L632,200 L632,208 L632,216 L640,216 L640,208 L640,200 L648,200 L648,208 L648,216 L648,224 L648,232 L648,240 L640,240 L640,232 L640,224 L632,224 L632,232 L632,240 L632,248 L632,256 L632,264 L640,264 L640,256 L640,248 L648,248 L648,256 L648,264 L648,272 L648,280 L648,288 L640,288 L640,280 L640,272 L632,272 L632,280 L632,288 L624,288 L624,280 L624,272 L616,272 L616,280 L616,288 L608,288 L608,280 L608,272 L608,264 L608,256 L608,248 L616,248 L616,256 L616,264 L624,264 L624,256 L624,248 L624,240 L624,232 L624,224 L616,224 L616,232 L616,240 L608,240 L608,232 L608,224 L600,224 L600,232 L600,240 L592,240 L592,232 L592,224 L584,224 L584,232 L584,240 L584,248 L584,256 L584,264 L592,264 L592,256 L592,248 L600,248 L600,256 L600,264 L600,272 L600,280 L600,288 L592,288 L592,280 L592,272 L584,272 L584,280 L584,288 L584,296 L584,304 L584,312 L592,312 L592,304 L592,296 L600,296 L600,304 L600,312 L600,320 L600,328 L600,336 L592,336 L592,328 L592,320 L584,320 L584,328 L584,336 L584,344 L584,352 L584,360 L592,360 L592,352 L592,344 L600,344 L600,352 L600,360 L608,360 L608,352 L608,344 L616,344 L616,352 L616,360 L624,360 L624,352 L624,344 L624,336 L624,328 L624,320 L616,320 L616,328 L616,336 L608,336 L608,328 L608,320 L608,312 L608,304 L608,296 L616,296 L616,304 L616,312 L624,312 L624,304 L624,296 L632,296 L632,304 L632,312 L640,312 L640,304 L640,296 L648,296 L648,304 L648,312 L648,320 L648,328 L648,336 L640,336 L640,328 L640,320 L632,320 L632,328 L632,336 L632,344 L632,352 L632,360 L640,360 L640,352 L640,344 L648,344 L648,352 L648,360 L648,368 L648,376 L648,384 L640,384 L640,376 L640,368 L632,368 L632,376 L632,384 L632,392 L632,400 L632,408 L640,408 L640,400 L640,392 L648,392 L648,400 L648,408 L648,416 L648,424 L648,432 L640,432 L640,424 L640,416 L632,416 L632,424 L632,432 L624,432 L624,424 L624,416 L616,416 L616,424 L616,432 L608,432 L608,424 L608,416 L608,408 L608,400 L608,392 L616,392 L616,400 L616,408 L624,408 L624,400 L624,392 L624,384 L624,376 L624,368 L616,368 L616,376 L616,384 L608,384 L608,376 L608,368 L600,368 L600,376 L600,384 L592,384 L592,376 L592,368 L584,368 L584,376 L584,384 L584,392 L584,400 L584,408 L592,408 L592,400 L592,392 L600,392 L600,400 L600,408 L600,416 L600,424 L600,432 L592,432 L592,424 L592,416 L584,416 L584,424 L584,432 L576,432 L576,424 L576,416 L568,416 L568,424 L568,432 L560,432 L560,424 L560,416 L560,408 L560,400 L560,392 L568,392 L568,400 L568,408 L576,408 L576,400 L576,392 L576,384 L576,376 L576,368 L568,368 L568,376 L568,384 L560,384 L560,376 L560,368 L552,368 L552,376 L552,384 L544,384 L544,376 L544,368 L536,368 L536,376 L536,384 L536,392 L536,400 L536,408 L544,408 L544,400 L544,392 L552,392 L552,400 L552,408 L552,416 L552,424 L552,432 L544,432 L544,424 L544,416 L536,416 L536,424 L536,432 L528,432 L528,424 L528,416 L520,416 L520,424 L520,432 L512,432 L512,424 L512,416 L512,408 L512,400 L512,392 L520,392 L520,400 L520,408 L528,408 L528,400 L528,392 L528,384 L528,376 L528,368 L520,368 L520,376 L520,384 L512,384 L512,376 L512,368 L512,360 L512,352 L512,344 L520,344 L520,352 L520,360 L528,360 L528,352 L528,344 L528,336 L528,328 L528,320 L520,320 L520,328 L520,336 L512,336 L512,328 L512,320 L512,312 L512,304 L512,296 L520,296 L520,304 L520,312 L528,312 L528,304 L528,296 L536,296 L536,304 L536,312 L544,312 L544,304 L544,296 L552,296 L552,304 L552,312 L552,320 L552,328 L552,336 L544,336 L544,328 L544,320 L536,320 L536,328 L536,336 L536,344 L536,352 L536,360 L544,360 L544,352 L544,344 L552,344 L552,352 L552,360 L560,360 L560,352 L560,344 L568,344 L568,352 L568,360 L576,360 L576,352 L576,344 L576,336 L576,328 L576,320 L568,320 L568,328 L568,336 L560,336 L560,328 L560,320 L560,312 L560,304 L560,296 L568,296 L568,304 L568,312 L576,312 L576,304 L576,296 L576,288 L576,280 L576,272 L568,272 L568,280 L568,288 L560,288 L560,280 L560,272 L560,264 L560,256 L560,248 L568,248 L568,256 L568,264 L576,264 L576,256 L576,248 L576,240 L576,232 L576,224 L568,224 L568,232 L568,240 L560,240 L560,232 L560,224 L552,224 L552,232 L552,240 L544,240 L544,232 L544,224 L536,224 L536,232 L536,240 L536,248 L536,256 L536,264 L544,264 L544,256 L544,248 L552,248 L552,256 L552,264 L552,272 L552,280 L552,288 L544,288 L544,280 L544,272 L536,272 L536,280 L536,288 L528,288 L528,280 L528,272 L520,272 L520,280 L520,288 L512,288 L512,280 L512,272 L512,264 L512,256 L512,248 L520,248 L520,256 L520,264 L528,264 L528,256 L528,248 L528,240 L528,232 L528,224 L520,224 L520,232 L520,240 L512,240 L512,232 L512,224 L504,224 L504,232 L504,240 L496,240 L496,232 L496,224 L488,224 L488,232 L488,240 L488,248 L488,256 L488,264 L496,264 L496,256 L496,248 L504,248 L504,256 L504,264 L504,272 L504,280 L504,288 L496,288 L496,280 L496,272 L488,272 L488,280 L488,288 L480,288 L480,280 L480,272 L472,272 L472,280 L472,288 L464,288 L464,280 L464,272 L464,264 L464,256 L464,248 L472,248 L472,256 L472,264 L480,264 L480,256 L480,248 L480,240 L480,232 L480,224 L472,224 L472,232 L472,240 L464,240 L464,232 L464,224 L456,224 L456,232 L456,240 L448,240 L448,232 L448,224 L440,224 L440,232 L440,240 L440,248 L440,256 L440,264 L448,264 L448,256 L448,248 L456,248 L456,256 L456,264 L456,272 L456,280 L456,288 L448,288 L448,280 L448,272 L440,272 L440,280 L440,288 L440,296 L440,304 L440,312 L448,312 L448,304 L448,296 L456,296 L456,304 L456,312 L456,320 L456,328 L456,336 L448,336 L448,328 L448,320 L440,320 L440,328 L440,336 L440,344 L440,352 L440,360 L448,360 L448,352 L448,344 L456,344 L456,352 L456,360 L464,360 L464,352 L464,344 L472,344 L472,352 L472,360 L480,360 L480,352 L480,344 L480,336 L480,328 L480,320 L472,320 L472,328 L472,336 L464,336 L464,328 L464,320 L464,312 L464,304 L464,296 L472,296 L472,304 L472,312 L480,312 L480,304 L480,296 L488,296 L488,304 L488,312 L496,312 L496,304 L496,296 L504,296 L504,304 L504,312 L504,320 L504,328 L504,336 L496,336 L496,328 L496,320 L488,320 L488,328 L488,336 L488,344 L488,352 L488,360 L496,360 L496,352 L496,344 L504,344 L504,352 L504,360 L504,368 L504,376 L504,384 L496,384 L496,376 L496,368 L488,368 L488,376 L488,384 L488,392 L488,400 L488,408 L496,408 L496,400 L496,392 L504,392 L504,400 L504,408 L504,416 L504,424 L504,432 L496,432 L496,424 L496,416 L488,416 L488,424 L488,432 L480,432 L480,424 L480,416 L472,416 L472,424 L472,432 L464,432 L464,424 L464,416 L464,408 L464,400 L464,392 L472,392 L472,400 L472,408 L480,408 L480,400 L480,392 L480,384 L480,376 L480,368 L472,368 L472,376 L472,384 L464,384 L464,376 L464,368 L456,368 L456,376 L456,384 L448,384 L448,376 L448,368 L440,368 L440,376 L440,384 L440,392 L440,400 L440,408 L448,408 L448,400 L448,392 L456,392 L456,400 L456,408 L456,416 L456,424 L456,432 L448,432 L448,424 L448,416 L440,416 L440,424 L440,432 L440,440 L440,448 L440,456 L448,456 L448,448 L448,440 L456,440 L456,448 L456,456 L456,464 L456,472 L456,480 L448,480 L448,472 L448,464 L440,464 L440,472 L440,480 L440,488 L440,496 L440,504 L448,504 L448,496 L448,488 L456,488 L456,496 L456,504 L464,504 L464,496 L464,488 L472,488 L472,496 L472,504 L480,504 L480,496 L480,488 L480,480 L480,472 L480,464 L472,464 L472,472 L472,480 L464,480 L464,472 L464,464 L464,456 L464,448 L464,440 L472,440 L472,448 L472,456 L480,456 L480,448 L480,440 L488,440 L488,448 L488,456 L496,456 L496,448 L496,440 L504,440 L504,448 L504,456 L504,464 L504,472 L504,480 L496,480 L496,472 L496,464 L488,464 L488,472 L488,480 L488,488 L488,496 L488,504 L496,504 L496,496 L496,488 L504,488 L504,496 L504,504 L504,512 L504,520 L504,528 L496,528 L496,520 L496,512 L488,512 L488,520 L488,528 L488,536 L488,544 L488,552 L496,552 L496,544 L496,536 L504,536 L504,544 L504,552 L504,560 L504,568 L504,576 L496,576 L496,568 L496,560 L488,560 L488,568 L488,576 L480,576 L480,568 L480,560 L472,560 L472,568 L472,576 L464,576 L464,568 L464,560 L464,552 L464,544 L464,536 L472,536 L472,544 L472,552 L480,552 L480,544 L480,536 L480,528 L480,520 L480,512 L472,512 L472,520 L472,528 L464,528 L464,520 L464,512 L456,512 L456,520 L456,528 L448,528 L448,520 L448,512 L440,512 L440,520 L440,528 L440,536 L440,544 L440,552 L448,552 L448,544 L448,536 L456,536 L456,544 L456,552 L456,560 L456,568 L456,576 L448,576 L448,568 L448,560 L440,560 L440,568 L440,576 L440,584 L440,592 L440,600 L448,600 L448,592 L448,584 L456,584 L456,592 L456,600 L456,608 L456,616 L456,624 L448,624 L448,616 L448,608 L440,608 L440,616 L440,624 L440,632 L440,640 L440,648 L448,648 L448,640 L448,632 L456,632 L456,640 L456,648 L464,648 L464,640 L464,632 L472,632 L472,640 L472,648 L480,648 L480,640 L480,632 L480,624 L480,616 L480,608 L472,608 L472,616 L472,624 L464,624 L464,616 L464,608 L464,600 L464,592 L464,584 L472,584 L472,592 L472,600 L480,600 L480,592 L480,584 L488,584 L488,592 L488,600 L496,600 L496,592 L496,584 L504,584 L504,592 L504,600 L504,608 L504,616 L504,624 L496,624 L496,616 L496,608 L488,608 L488,616 L488,624 L488,632 L488,640 L488,648 L496,648 L496,640 L496,632 L504,632 L504,640 L504,648 L512,648 L512,640 L512,632 L520,632 L520,640 L520,648 L528,648 L528,640 L528,632 L528,624 L528,616 L528,608 L520,608 L520,616 L520,624 L512,624 L512,616 L512,608 L512,600 L512,592 L512,584 L520,584 L520,592 L520,600 L528,600 L528,592 L528,584 L536,584 L536,592 L536,600 L544,600 L544,592 L544,584 L552,584 L552,592 L552,600 L552,608 L552,616 L552,624 L544,624 L544,616 L544,608 L536,608 L536,616 L536,624 L536,632 L536,640 L536,648 L544,648 L544,640 L544,632 L552,632 L552,640 L552,648 L560,648 L560,640 L560,632 L568,632 L568,640 L568,648 L576,648 L576,640 L576,632 L576,624 L576,616 L576,608 L568,608 L568,616 L568,624 L560,624 L560,616 L560,608 L560,600 L560,592 L560,584 L568,584 L568,592 L568,600 L576,600 L576,592 L576,584 L576,576 L576,568 L576,560 L568,560 L568,568 L568,576 L560,576 L560,568 L560,560 L560,552 L560,544 L560,536 L568,536 L568,544 L568,552 L576,552 L576,544 L576,536 L576,528 L576,520 L576,512 L568,512 L568,520 L568,528 L560,528 L560,520 L560,512 L552,512 L552,520 L552,528 L544,528 L544,520 L544,512 L536,512 L536,520 L536,528 L536,536 L536,544 L536,552 L544,552 L544,544 L544,536 L552,536 L552,544 L552,552 L552,560 L552,568 L552,576 L544,576 L544,568 L544,560 L536,560 L536,568 L536,576 L528,576 L528,568 L528,560 L520,560 L520,568 L520,576 L512,576 L512,568 L512,560 L512,552 L512,544 L512,536 L520,536 L520,544 L520,552 L528,552 L528,544 L528,536 L528,528 L528,520 L528,512 L520,512 L520,520 L520,528 L512,528 L512,520 L512,512 L512,504 L512,496 L512,488 L520,488 L520,496 L520,504 L528,504 L528,496 L528,488 L528,480 L528,472 L528,464 L520,464 L520,472 L520,480 L512,480 L512,472 L512,464 L512,456 L512,448 L512,440 L520,440 L520,448 L520,456 L528,456 L528,448 L528,440 L536,440 L536,448 L536,456 L544,456 L544,448 L544,440 L552,440 L552,448 L552,456 L552,464 L552,472 L552,480 L544,480 L544,472 L544,464 L536,464 L536,472 L536,480 L536,488 L536,496 L536,504 L544,504 L544,496 L544,488 L552,488 L552,496 L552,504 L560,504 L560,496 L560,488 L568,488 L568,496 L568,504 L576,504 L576,496 L576,488 L576,480 L576,472 L576,464 L568,464 L568,472 L568,480 L560,480 L560,472 L560,464 L560,456 L560,448 L560,440 L568,440 L568,448 L568,456 L576,456 L576,448 L576,440 L584,440 L584,448 L584,456 L592,456 L592,448 L592,440 L600,440 L600,448 L600,456 L600,464 L600,472 L600,480 L592,480 L592,472 L592,464 L584,464 L584,472 L584,480 L584,488 L584,496 L584,504 L592,504 L592,496 L592,488 L600,488 L600,496 L600,504 L608,504 L608,496 L608,488 L616,488 L616,496 L616,504 L624,504 L624,496 L624,488 L624,480 L624,472 L624,464 L616,464 L616,472 L616,480 L608,480 L608,472 L608,464 L608,456 L608,448 L608,440 L616,440 L616,448 L616,456 L624,456 L624,448 L624,440 L632,440 L632,448 L632,456 L640,456 L640,448 L640,440 L648,440 L648,448 L648,456 L648,464 L648,472 L648,480 L640,480 L640,472 L640,464 L632,464 L632,472 L632,480 L632,488 L632,496 L632,504 L640,504 L640,496 L640,488 L648,488 L648,496 L648,504 L648,512 L648,520 L648,528 L640,528 L640,520 L640,512 L632,512 L632,520 L632,528 L632,536 L632,544 L632,552 L640,552 L640,544 L640,536 L648,536 L648,544 L648,552 L648,560 L648,568 L648,576 L640,576 L640,568 L640,560 L632,560 L632,568 L632,576 L624,576 L624,568 L624,560 L616,560 L616,568 L616,576 L608,576 L608,568 L608,560 L608,552 L608,544 L608,536 L616,536 L616,544 L616,552 L624,552 L624,544 L624,536 L624,528 L624,520 L624,512 L616,512 L616,520 L616,528 L608,528 L608,520 L608,512 L600,512 L600,520 L600,528 L592,528 L592,520 L592,512 L584,512 L584,520 L584,528 L584,536 L584,544 L584,552 L592,552 L592,544 L592,536 L600,536 L600,544 L600,552 L600,560 L600,568 L600,576 L592,576 L592,568 L592,560 L584,560 L584,568 L584,576 L584,584 L584,592 L584,600 L592,600 L592,592 L592,584 L600,584 L600,592 L600,600 L600,608 L600,616 L600,624 L592,624 L592,616 L592,608 L584,608 L584,616 L584,624 L584,632 L584,640 L584,648 L592,648 L592,640 L592,632 L600,632 L600,640 L600,648 L608,648 L608,640 L608,632 L616,632 L616,640 L616,648 L624,648 L624,640 L624,632 L624,624 L624,616 L624,608 L616,608 L616,616 L616,624 L608,624 L608,616 L608,608 L608,600 L608,592 L608,584 L616,584 L616,592 L616,600 L624,600 L624,592 L624,584 L632,584 L632,592 L632,600 L640,600 L640,592 L640,584 L648,584 L648,592 L648,600 L648,608 L648,616 L648,624 L640,624 L640,616 L640,608 L632,608 L632,616 L632,624 L632,632 L632,640 L632,648 L640,648 L640,640 L640,632 L648,632 L648,640 L648,648" fill="none" stroke="black" stroke-width="1"/>
</svg>