<svg height="650" width="650" xmlns="http://www.w3.org/2000/svg">
<rect fill="white" height="100%" width="100%"/>
<path d="M10,10 L20,10 L20,20 L10,20 L10,30 L10,40 L20,40 L20,30 L30,30 L30,40 L40,40 L40,30 L40,20 L30,20 L30,10 L40,10 L50,10 L50,20 L60,20 L60,10 L70,10 L80,10 L80,20 L70,20 L70,30 L80,30 L80,40 L70,40 L60,40 L60,30 L50,30 L50,40 L50,50 L50,60 L60,60 L60,50 L70,50 L80,50 L80,60 L70,60 L70,70 L80,70 L80,80 L70,80 L60,80 L60,70 L50,70 L50,80 L40,80 L30,80 L30,70 L40,70 L40,60 L40,50 L30,50 L30,60 L20,60 L20,50 L10,50 L10,60 L10,70 L20,70 L20,80 L10,80 L10,90 L10,100 L20,100 L20,90 L30,90 L40,90 L40,100 L30,100 L30,110 L40,110 L40,120 L30,120 L20,120 L20,110 L10,110 L10,120 L10,130 L20,130 L20,140 L10,140 L10,150 L10,160 L20,160 L20,150 L30,150 L30,160 L40,160 L40,150 L40,140 L30,140 L30,130 L40,130 L50,130 L60,130 L60,140 L50,140 L50,150 L50,160 L60,160 L60,150 L70,150 L70,160 L80,160 L80,150 L80,140 L70,140 L70,130 L80,130 L80,120 L80,110 L70,110 L70,120 L60,120 L50,120 L50,110 L60,110 L60,100 L50,100 L50,90 L60,90 L70,90 L70,100 L80,100 L80,90 L90,90 L90,100 L100,100 L100,90 L110,90 L120,90 L120,100 L110,100 L110,110 L120,110 L120,120 L110,120 L100,120 L100,110 L90,110 L90,120 L90,130 L100,130 L100,140 L90,140 L90,150 L90,160 L100,160 L100,150 L110,150 L110,160 L120,160 L120,150 L120,140 L110,140 L110,130 L120,130 L130,130 L140,130 L140,140 L130,140 L130,150 L130,160 L140,160 L140,150 L150,150 L150,160 L160,160 L160,150 L160,140 L150,140 L150,130 L160,130 L160,120 L160,110 L150,110 L150,120 L140,120 L130,120 L130,110 L140,110 L140,100 L130,100 L130,90 L140,90 L150,90 L150,100 L160,100 L160,90 L160,80 L150,80 L150,70 L160,70 L160,60 L160,50 L150,50 L150,60 L140,60 L140,50 L130,50 L130,60 L130,70 L140,70 L140,80 L130,80 L120,80 L120,70 L110,70 L110,80 L100,80 L90,80 L90,70 L100,70 L100,60 L90,60 L90,50 L100,50 L110,50 L110,60 L120,60 L120,50 L120,40 L120,30 L110,30 L110,40 L100,40 L90,40 L90,30 L100,30 L100,20 L90,20 L90,10 L100,10 L110,10 L110,20 L120,20 L120,10 L130,10 L140,10 L140,20 L130,20 L130,30 L130,40 L140,40 L140,30 L150,30 L150,40 L160,40 L160,30 L160,20 L150,20 L150,10 L160,10 L170,10 L170,20 L180,20 L180,10 L190,10 L200,10 L200,20 L190,20 L190,30 L200,30 L200,40 L190,40 L180,40 L180,30 L170,30 L170,40 L170,50 L180,50 L180,60 L170,60 L170,70 L170,80 L180,80 L180,70 L190,70 L190,80 L200,80 L200,70 L200,60 L190,60 L190,50 L200,50 L210,50 L220,50 L220,60 L210,60 L210,70 L210,80 L220,80 L220,70 L230,70 L230,80 L240,80 L240,70 L240,60 L230,60 L230,50 L240,50 L240,40 L240,30 L230,30 L230,40 L220,40 L210,40 L210,30 L220,30 L220,20 L210,20 L210,10 L220,10 L230,10 L230,20 L240,20 L240,10 L250,10 L260,10 L260,20 L250,20 L250,30 L250,40 L260,40 L260,30 L270,30 L270,40 L280,40 L280,30 L280,20 L270,20 L270,10 L280,10 L290,10 L290,20 L300,20 L300,10 L310,10 L320,10 L320,20 L310,20 L310,30 L320,30 L320,40 L310,40 L300,40 L300,30 L290,30 L290,40 L290,50 L290,60 L300,60 L300,50 L310,50 L320,50 L320,60 L310,60 L310,70 L320,70 L320,80 L310,80 L300,80 L300,70 L290,70 L290,80 L280,80 L270,80 L270,70 L280,70 L280,60 L280,50 L270,50 L270,60 L260,60 L260,50 L250,50 L250,60 L250,70 L260,70 L260,80 L250,80 L250,90 L260,90 L260,100 L250,100 L250,110 L250,120 L260,120 L260,110 L270,110 L270,120 L280,120 L280,110 L280,100 L270,100 L270,90 L280,90 L290,90 L290,100 L300,100 L300,90 L310,90 L320,90 L320,100 L310,100 L310,110 L320,110 L320,120 L310,120 L300,120 L300,110 L290,110 L290,120 L290,130 L290,140 L300,140 L300,130 L310,130 L320,130 L320,140 L310,140 L310,150 L320,150 L320,160 L310,160 L300,160 L300,150 L290,150 L290,160 L280,160 L270,160 L270,150 L280,150 L280,140 L280,130 L270,130 L270,140 L260,140 L260,130 L250,130 L250,140 L250,150 L260,150 L260,160 L250,160 L240,160 L240,150 L230,150 L230,160 L220,160 L210,160 L210,150 L220,150 L220,140 L210,140 L210,130 L220,130 L230,130 L230,140 L240,140 L240,130 L240,120 L230,120 L230,110 L240,110 L240,100 L240,90 L230,90 L230,100 L220,100 L220,90 L210,90 L210,100 L210,110 L220,110 L220,120 L210,120 L200,120 L190,120 L190,110 L200,110 L200,100 L200,90 L190,90 L190,100 L180,100 L180,90 L170,90 L170,100 L170,110 L180,110 L180,120 L170,120 L170,130 L170,140 L180,140 L180,130 L190,130 L200,130 L200,140 L190,140 L190,150 L200,150 L200,160 L190,160 L180,160 L180,150 L170,150 L170,160 L170,170 L170,180 L180,180 L180,170 L190,170 L200,170 L200,180 L190,180 L190,190 L200,190 L200,200 L190,200 L180,200 L180,190 L170,190 L170,200 L170,210 L180,210 L180,220 L170,220 L170,230 L170,240 L180,240 L180,230 L190,230 L190,240 L200,240 L200,230 L200,220 L190,220 L190,210 L200,210 L210,210 L220,210 L220,220 L210,220 L210,230 L210,240 L220,240 L220,230 L230,230 L230,240 L240,240 L240,230 L240,220 L230,220 L230,210 L240,210 L240,200 L240,190 L230,190 L230,200 L220,200 L210,200 L210,190 L220,190 L220,180 L210,180 L210,170 L220,170 L230,170 L230,180 L240,180 L240,170 L250,170 L260,170 L260,180 L250,180 L250,190 L250,200 L260,200 L260,190 L270,190 L270,200 L280,200 L280,190 L280,180 L270,180 L270,170 L280,170 L290,170 L290,180 L300,180 L300,170 L310,170 L320,170 L320,180 L310,180 L310,190 L320,190 L320,200 L310,200 L300,200 L300,190 L290,190 L290,200 L290,210 L290,220 L300,220 L300,210 L310,210 L320,210 L320,220 L310,220 L310,230 L320,230 L320,240 L310,240 L300,240 L300,230 L290,230 L290,240 L280,240 L270,240 L270,230 L280,230 L280,220 L280,210 L270,210 L270,220 L260,220 L260,210 L250,210 L250,220 L250,230 L260,230 L260,240 L250,240 L250,250 L260,250 L260,260 L250,260 L250,270 L250,280 L260,280 L260,270 L270,270 L270,280 L280,280 L280,270 L280,260 L270,260 L270,250 L280,250 L290,250 L290,260 L300,260 L300,250 L310,250 L320,250 L320,260 L310,260 L310,270 L320,270 L320,280 L310,280 L300,280 L300,270 L290,270 L290,280 L290,290 L290,300 L300,300 L300,290 L310,290 L320,290 L320,300 L310,300 L310,310 L320,310 L320,320 L310,320 L300,320 L300,310 L290,310 L290,320 L280,320 L270,320 L270,310 L280,310 L280,300 L280,290 L270,290 L270,300 L260,300 L260,290 L250,290 L250,300 L250,310 L260,310 L260,320 L250,320 L240,320 L240,310 L230,310 L230,320 L220,320 L210,320 L210,310 L220,310 L220,300 L210,300 L210,290 L220,290 L230,290 L230,300 L240,300 L240,290 L240,280 L230,280 L230,270 L240,270 L240,260 L240,250 L230,250 L230,260 L220,260 L220,250 L210,250 L210,260 L210,270 L220,270 L220,280 L210,280 L200,280 L190,280 L190,270 L200,270 L200,260 L200,250 L190,250 L190,260 L180,260 L180,250 L170,250 L170,260 L170,270 L180,270 L180,280 L170,280 L170,290 L170,300 L180,300 L180,290 L190,290 L200,290 L200,300 L190,300 L190,310 L200,310 L200,320 L190,320 L180,320 L180,310 L170,310 L170,320 L160,320 L150,320 L150,310 L160,310 L160,300 L160,290 L150,290 L150,300 L140,300 L140,290 L130,290 L130,300 L130,310 L140,310 L140,320 L130,320 L120,320 L120,310 L110,310 L110,320 L100,320 L90,320 L90,310 L100,310 L100,300 L90,300 L90,290 L100,290 L110,290 L110,300 L120,300 L120,290 L120,280 L120,270 L110,270 L110,280 L100,280 L90,280 L90,270 L100,270 L100,260 L90,260 L90,250 L100,250 L110,250 L110,260 L120,260 L120,250 L130,250 L140,250 L140,260 L130,260 L130,270 L130,280 L140,280 L140,270 L150,270 L150,280 L160,280 L160,270 L160,260 L150,260 L150,250 L160,250 L160,240 L160,230 L150,230 L150,240 L140,240 L130,240 L130,230 L140,230 L140,220 L130,220 L130,210 L140,210 L150,210 L150,220 L160,220 L160,210 L160,200 L150,200 L150,190 L160,190 L160,180 L160,170 L150,170 L150,180 L140,180 L140,170 L130,170 L130,180 L130,190 L140,190 L140,200 L130,200 L120,200 L110,200 L110,190 L120,190 L120,180 L120,170 L110,170 L110,180 L100,180 L100,170 L90,170 L90,180 L90,190 L100,190 L100,200 L90,200 L90,210 L90,220 L100,220 L100,210 L110,210 L120,210 L120,220 L110,220 L110,230 L120,230 L120,240 L110,240 L100,240 L100,230 L90,230 L90,240 L80,240 L80,230 L70,230 L70,240 L60,240 L50,240 L50,230 L60,230 L60,220 L50,220 L50,210 L60,210 L70,210 L70,220 L80,220 L80,210 L80,200 L70,200 L70,190 L80,190 L80,180 L80,170 L70,170 L70,180 L60,180 L60,170 L50,170 L50,180 L50,190 L60,190 L60,200 L50,200 L40,200 L30,200 L30,190 L40,190 L40,180 L40,170 L30,170 L30,180 L20,180 L20,170 L10,170 L10,180 L10,190 L20,190 L20,200 L10,200 L10,210 L10,220 L20,220 L20,210 L30,210 L40,210 L40,220 L30,220 L30,230 L40,230 L40,240 L30,240 L20,240 L20,230 L10,230 L10,240 L10,250 L20,250 L20,260 L10,260 L10,270 L10,280 L20,280 L20,270 L30,270 L30,280 L40,280 L40,270 L40,260 L30,260 L30,250 L40,250 L50,250 L50,260 L60,260 L60,250 L70,250 L80,250 L80,260 L70,260 L70,270 L80,270 L80,280 L70,280 L60,280 L60,270 L50,270 L50,280 L50,290 L50,300 L60,300 L60,290 L70,290 L80,290 L80,300 L70,300 L70,310 L80,310 L80,320 L70,320 L60,320 L60,310 L50,310 L50,320 L40,320 L30,320 L30,310 L40,310 L40,300 L40,290 L30,290 L30,300 L20,300 L20,290 L10,290 L10,300 L10,310 L20,310 L20,320 L10,320 L10,330 L10,340 L20,340 L20,330 L30,330 L40,330 L40,340 L30,340 L30,350 L40,350 L40,360 L30,360 L20,360 L20,350 L10,350 L10,360 L10,370 L20,370 L20,380 L10,380 L10,390 L10,400 L20,400 L20,390 L30,390 L30,400 L40,400 L40,390 L40,380 L30,380 L30,370 L40,370 L50,370 L60,370 L60,380 L50,380 L50,390 L50,400 L60,400 L60,390 L70,390 L70,400 L80,400 L80,390 L80,380 L70,380 L70,370 L80,370 L80,360 L80,350 L70,350 L70,360 L60,360 L50,360 L50,350 L60,350 L60,340 L50,340 L50,330 L60,330 L70,330 L70,340 L80,340 L80,330 L90,330 L100,330 L100,340 L90,340 L90,350 L90,360 L100,360 L100,350 L110,350 L110,360 L120,360 L120,350 L120,340 L110,340 L110,330 L120,330 L130,330 L130,340 L140,340 L140,330 L150,330 L160,330 L160,340 L150,340 L150,350 L160,350 L160,360 L150,360 L140,360 L140,350 L130,350 L130,360 L130,370 L130,380 L140,380 L140,370 L150,370 L160,370 L160,380 L150,380 L150,390 L160,390 L160,400 L150,400 L140,400 L140,390 L130,390 L130,400 L120,400 L110,400 L110,390 L120,390 L120,380 L120,370 L110,370 L110,380 L100,380 L100,370 L90,370 L90,380 L90,390 L100,390 L100,400 L90,400 L90,410 L100,410 L100,420 L90,420 L90,430 L90,440 L100,440 L100,430 L110,430 L110,440 L120,440 L120,430 L120,420 L110,420 L110,410 L120,410 L130,410 L130,420 L140,420 L140,410 L150,410 L160,410 L160,420 L150,420 L150,430 L160,430 L160,440 L150,440 L140,440 L140,430 L130,430 L130,440 L130,450 L130,460 L140,460 L140,450 L150,450 L160,450 L160,460 L150,460 L150,470 L160,470 L160,480 L150,480 L140,480 L140,470 L130,470 L130,480 L120,480 L110,480 L110,470 L120,470 L120,460 L120,450 L110,450 L110,460 L100,460 L100,450 L90,450 L90,460 L90,470 L100,470 L100,480 L90,480 L80,480 L80,470 L70,470 L70,480 L60,480 L50,480 L50,470 L60,470 L60,460 L50,460 L50,450 L60,450 L70,450 L70,460 L80,460 L80,450 L80,440 L70,440 L70,430 L80,430 L80,420 L80,410 L70,410 L70,420 L60,420 L60,410 L50,410 L50,420 L50,430 L60,430 L60,440 L50,440 L40,440 L30,440 L30,430 L40,430 L40,420 L40,410 L30,410 L30,420 L20,420 L20,410 L10,410 L10,420 L10,430 L20,430 L20,440 L10,440 L10,450 L10,460 L20,460 L20,450 L30,450 L40,450 L40,460 L30,460 L30,470 L40,470 L40,480 L30,480 L20,480 L20,470 L10,470 L10,480 L10,490 L20,490 L20,500 L10,500 L10,510 L10,520 L20,520 L20,510 L30,510 L30,520 L40,520 L40,510 L40,500 L30,500 L30,490 L40,490 L50,490 L50,500 L60,500 L60,490 L70,490 L80,490 L80,500 L70,500 L70,510 L80,510 L80,520 L70,520 L60,520 L60,510 L50,510 L50,520 L50,530 L50,540 L60,540 L60,530 L70,530 L80,530 L80,540 L70,540 L70,550 L80,550 L80,560 L70,560 L60,560 L60,550 L50,550 L50,560 L40,560 L30,560 L30,550 L40,550 L40,540 L40,530 L30,530 L30,540 L20,540 L20,530 L10,530 L10,540 L10,550 L20,550 L20,560 L10,560 L10,570 L10,580 L20,580 L20,570 L30,570 L40,570 L40,580 L30,580 L30,590 L40,590 L40,600 L30,600 L20,600 L20,590 L10,590 L10,600 L10,610 L20,610 L20,620 L10,620 L10,630 L10,640 L20,640 L20,630 L30,630 L30,640 L40,640 L40,630 L40,620 L30,620 L30,610 L40,610 L50,610 L60,610 L60,620 L50,620 L50,630 L50,640 L60,640 L60,630 L70,630 L70,640 L80,640 L80,630 L80,620 L70,620 L70,610 L80,610 L80,600 L80,590 L70,590 L70,600 L60,600 L50,600 L50,590 L60,590 L60,580 L50,580 L50,570 L60,570 L70,570 L70,580 L80,580 L80,570 L90,570 L90,580 L100,580 L100,570 L110,570 L120,570 L120,580 L110,580 L110,590 L120,590 L120,600 L110,600 L100,600 L100,590 L90,590 L90,600 L90,610 L100,610 L100,620 L90,620 L90,630 L90,640 L100,640 L100,630 L110,630 L110,640 L120,640 L120,630 L120,620 L110,620 L110,610 L120,610 L130,610 L140,610 L140,620 L130,620 L130,630 L130,640 L140,640 L140,630 L150,630 L150,640 L160,640 L160,630 L160,620 L150,620 L150,610 L160,610 L160,600 L160,590 L150,590 L150,600 L140,600 L130,600 L130,590 L140,590 L140,580 L130,580 L130,570 L140,570 L150,570 L150,580 L160,580 L160,570 L160,560 L150,560 L150,550 L160,550 L160,540 L160,530 L150,530 L150,540 L140,540 L140,530 L130,530 L130,540 L130,550 L140,550 L140,560 L130,560 L120,560 L120,550 L110,550 L110,560 L100,560 L90,560 L90,550 L100,550 L100,540 L90,540 L90,530 L100,530 L110,530 L110,540 L120,540 L120,530 L120,520 L120,510 L110,510 L110,520 L100,520 L90,520 L90,510 L100,510 L100,500 L90,500 L90,490 L100,490 L110,490 L110,500 L120,500 L120,490 L130,490 L140,490 L140,500 L130,500 L130,510 L130,520 L140,520 L140,510 L150,510 L150,520 L160,520 L160,510 L160,500 L150,500 L150,490 L160,490 L170,490 L180,490 L180,500 L170,500 L170,510 L170,520 L180,520 L180,510 L190,510 L190,520 L200,520 L200,510 L200,500 L190,500 L190,490 L200,490 L210,490 L210,500 L220,500 L220,490 L230,490 L240,490 L240,500 L230,500 L230,510 L240,510 L240,520 L230,520 L220,520 L220,510 L210,510 L210,520 L210,530 L210,540 L220,540 L220,530 L230,530 L240,530 L240,540 L230,540 L230,550 L240,550 L240,560 L230,560 L220,560 L220,550 L210,550 L210,560 L200,560 L190,560 L190,550 L200,550 L200,540 L200,530 L190,530 L190,540 L180,540 L180,530 L170,530 L170,540 L170,550 L180,550 L180,560 L170,560 L170,570 L170,580 L180,580 L180,570 L190,570 L200,570 L200,580 L190,580 L190,590 L200,590 L200,600 L190,600 L180,600 L180,590 L170,590 L170,600 L170,610 L180,610 L180,620 L170,620 L170,630 L170,640 L180,640 L180,630 L190,630 L190,640 L200,640 L200,630 L200,620 L190,620 L190,610 L200,610 L210,610 L220,610 L220,620 L210,620 L210,630 L210,640 L220,640 L220,630 L230,630 L230,640 L240,640 L240,630 L240,620 L230,620 L230,610 L240,610 L240,600 L240,590 L230,590 L230,600 L220,600 L210,600 L210,590 L220,590 L220,580 L210,580 L210,570 L220,570 L230,570 L230,580 L240,580 L240,570 L250,570 L250,580 L260,580 L260,570 L270,570 L280,570 L280,580 L270,580 L270,590 L280,590 L280,600 L270,600 L260,600 L260,590 L250,590 L250,600 L250,610 L260,610 L260,620 L250,620 L250,630 L250,640 L260,640 L260,630 L270,630 L270,640 L280,640 L280,630 L280,620 L270,620 L270,610 L280,610 L290,610 L300,610 L300,620 L290,620 L290,630 L290,640 L300,640 L300,630 L310,630 L310,640 L320,640 L320,630 L320,620 L310,620 L310,610 L320,610 L320,600 L320,590 L310,590 L310,600 L300,600 L290,600 L290,590 L300,590 L300,580 L290,580 L290,570 L300,570 L310,570 L310,580 L320,580 L320,570 L320,560 L310,560 L310,550 L320,550 L320,540 L320,530 L310,530 L310,540 L300,540 L300,530 L290,530 L290,540 L290,550 L300,550 L300,560 L290,560 L280,560 L280,550 L270,550 L270,560 L260,560 L250,560 L250,550 L260,550 L260,540 L250,540 L250,530 L260,530 L270,530 L270,540 L280,540 L280,530 L280,520 L280,510 L270,510 L270,520 L260,520 L250,520 L250,510 L260,510 L260,500 L250,500 L250,490 L260,490 L270,490 L270,500 L280,500 L280,490 L290,490 L300,490 L300,500 L290,500 L290,510 L290,520 L300,520 L300,510 L310,510 L310,520 L320,520 L320,510 L320,500 L310,500 L310,490 L320,490 L320,480 L320,470 L310,470 L310,480 L300,480 L290,480 L290,470 L300,470 L300,460 L290,460 L290,450 L300,450 L310,450 L310,460 L320,460 L320,450 L320,440 L310,440 L310,430 L320,430 L320,420 L320,410 L310,410 L310,420 L300,420 L300,410 L290,410 L290,420 L290,430 L300,430 L300,440 L290,440 L280,440 L270,440 L270,430 L280,430 L280,420 L280,410 L270,410 L270,420 L260,420 L260,410 L250,410 L250,420 L250,430 L260,430 L260,440 L250,440 L250,450 L250,460 L260,460 L260,450 L270,450 L280,450 L280,460 L270,460 L270,470 L280,470 L280,480 L270,480 L260,480 L260,470 L250,470 L250,480 L240,480 L230,480 L230,470 L240,470 L240,460 L240,450 L230,450 L230,460 L220,460 L220,450 L210,450 L210,460 L210,470 L220,470 L220,480 L210,480 L200,480 L200,470 L190,470 L190,480 L180,480 L170,480 L170,470 L180,470 L180,460 L170,460 L170,450 L180,450 L190,450 L190,460 L200,460 L200,450 L200,440 L200,430 L190,430 L190,440 L180,440 L170,440 L170,430 L180,430 L180,420 L170,420 L170,410 L180,410 L190,410 L190,420 L200,420 L200,410 L210,410 L220,410 L220,420 L210,420 L210,430 L210,440 L220,440 L220,430 L230,430 L230,440 L240,440 L240,430 L240,420 L230,420 L230,410 L240,410 L240,400 L230,400 L230,390 L240,390 L240,380 L240,370 L230,370 L230,380 L220,380 L220,370 L210,370 L210,380 L210,390 L220,390 L220,400 L210,400 L200,400 L200,390 L190,390 L190,400 L180,400 L170,400 L170,390 L180,390 L180,380 L170,380 L170,370 L180,370 L190,370 L190,380 L200,380 L200,370 L200,360 L200,350 L190,350 L190,360 L180,360 L170,360 L170,350 L180,350 L180,340 L170,340 L170,330 L180,330 L190,330 L190,340 L200,340 L200,330 L210,330 L220,330 L220,340 L210,340 L210,350 L210,360 L220,360 L220,350 L230,350 L230,360 L240,360 L240,350 L240,340 L230,340 L230,330 L240,330 L250,330 L250,340 L260,340 L260,330 L270,330 L280,330 L280,340 L270,340 L270,350 L280,350 L280,360 L270,360 L260,360 L260,350 L250,350 L250,360 L250,370 L260,370 L260,380 L250,380 L250,390 L250,400 L260,400 L260,390 L270,390 L270,400 L280,400 L280,390 L280,380 L270,380 L270,370 L280,370 L290,370 L300,370 L300,380 L290,380 L290,390 L290,400 L300,400 L300,390 L310,390 L310,400 L320,400 L320,390 L320,380 L310,380 L310,370 L320,370 L320,360 L320,350 L310,350 L310,360 L300,360 L290,360 L290,350 L300,350 L300,340 L290,340 L290,330 L300,330 L310,330 L310,340 L320,340 L320,330 L330,330 L330,340 L340,340 L340,330 L350,330 L360,330 L360,340 L350,340 L350,350 L360,350 L360,360 L350,360 L340,360 L340,350 L330,350 L330,360 L330,370 L340,370 L340,380 L330,380 L330,390 L330,400 L340,400 L340,390 L350,390 L350,400 L360,400 L360,390 L360,380 L350,380 L350,370 L360,370 L370,370 L380,370 L380,380 L370,380 L370,390 L370,400 L380,400 L380,390 L390,390 L390,400 L400,400 L400,390 L400,380 L390,380 L390,370 L400,370 L400,360 L400,350 L390,350 L390,360 L380,360 L370,360 L370,350 L380,350 L380,340 L370,340 L370,330 L380,330 L390,330 L390,340 L400,340 L400,330 L410,330 L420,330 L420,340 L410,340 L410,350 L410,360 L420,360 L420,350 L430,350 L430,360 L440,360 L440,350 L440,340 L430,340 L430,330 L440,330 L450,330 L450,340 L460,340 L460,330 L470,330 L480,330 L480,340 L470,340 L470,350 L480,350 L480,360 L470,360 L460,360 L460,350 L450,350 L450,360 L450,370 L450,380 L460,380 L460,370 L470,370 L480,370 L480,380 L470,380 L470,390 L480,390 L480,400 L470,400 L460,400 L460,390 L450,390 L450,400 L440,400 L430,400 L430,390 L440,390 L440,380 L440,370 L430,370 L430,380 L420,380 L420,370 L410,370 L410,380 L410,390 L420,390 L420,400 L410,400 L410,410 L420,410 L420,420 L410,420 L410,430 L410,440 L420,440 L420,430 L430,430 L430,440 L440,440 L440,430 L440,420 L430,420 L430,410 L440,410 L450,410 L450,420 L460,420 L460,410 L470,410 L480,410 L480,420 L470,420 L470,430 L480,430 L480,440 L470,440 L460,440 L460,430 L450,430 L450,440 L450,450 L450,460 L460,460 L460,450 L470,450 L480,450 L480,460 L470,460 L470,470 L480,470 L480,480 L470,480 L460,480 L460,470 L450,470 L450,480 L440,480 L430,480 L430,470 L440,470 L440,460 L440,450 L430,450 L430,460 L420,460 L420,450 L410,450 L410,460 L410,470 L420,470 L420,480 L410,480 L400,480 L400,470 L390,470 L390,480 L380,480 L370,480 L370,470 L380,470 L380,460 L370,460 L370,450 L380,450 L390,450 L390,460 L400,460 L400,450 L400,440 L390,440 L390,430 L400,430 L400,420 L400,410 L390,410 L390,420 L380,420 L380,410 L370,410 L370,420 L370,430 L380,430 L380,440 L370,440 L360,440 L350,440 L350,430 L360,430 L360,420 L360,410 L350,410 L350,420 L340,420 L340,410 L330,410 L330,420 L330,430 L340,430 L340,440 L330,440 L330,450 L330,460 L340,460 L340,450 L350,450 L360,450 L360,460 L350,460 L350,470 L360,470 L360,480 L350,480 L340,480 L340,470 L330,470 L330,480 L330,490 L340,490 L340,500 L330,500 L330,510 L330,520 L340,520 L340,510 L350,510 L350,520 L360,520 L360,510 L360,500 L350,500 L350,490 L360,490 L370,490 L370,500 L380,500 L380,490 L390,490 L400,490 L400,500 L390,500 L390,510 L400,510 L400,520 L390,520 L380,520 L380,510 L370,510 L370,520 L370,530 L370,540 L380,540 L380,530 L390,530 L400,530 L400,540 L390,540 L390,550 L400,550 L400,560 L390,560 L380,560 L380,550 L370,550 L370,560 L360,560 L350,560 L350,550 L360,550 L360,540 L360,530 L350,530 L350,540 L340,540 L340,530 L330,530 L330,540 L330,550 L340,550 L340,560 L330,560 L330,570 L330,580 L340,580 L340,570 L350,570 L360,570 L360,580 L350,580 L350,590 L360,590 L360,600 L350,600 L340,600 L340,590 L330,590 L330,600 L330,610 L340,610 L340,620 L330,620 L330,630 L330,640 L340,640 L340,630 L350,630 L350,640 L360,640 L360,630 L360,620 L350,620 L350,610 L360,610 L370,610 L380,610 L380,620 L370,620 L370,630 L370,640 L380,640 L380,630 L390,630 L390,640 L400,640 L400,630 L400,620 L390,620 L390,610 L400,610 L400,600 L400,590 L390,590 L390,600 L380,600 L370,600 L370,590 L380,590 L380,580 L370,580 L370,570 L380,570 L390,570 L390,580 L400,580 L400,570 L410,570 L410,580 L420,580 L420,570 L430,570 L440,570 L440,580 L430,580 L430,590 L440,590 L440,600 L430,600 L420,600 L420,590 L410,590 L410,600 L410,610 L420,610 L420,620 L410,620 L410,630 L410,640 L420,640 L420,630 L430,630 L430,640 L440,640 L440,630 L440,620 L430,620 L430,610 L440,610 L450,610 L460,610 L460,620 L450,620 L450,630 L450,640 L460,640 L460,630 L470,630 L470,640 L480,640 L480,630 L480,620 L470,620 L470,610 L480,610 L480,600 L480,590 L470,590 L470,600 L460,600 L450,600 L450,590 L460,590 L460,580 L450,580 L450,570 L460,570 L470,570 L470,580 L480,580 L480,570 L480,560 L470,560 L470,550 L480,550 L480,540 L480,530 L470,530 L470,540 L460,540 L460,530 L450,530 L450,540 L450,550 L460,550 L460,560 L450,560 L440,560 L440,550 L430,550 L430,560 L420,560 L410,560 L410,550 L420,550 L420,540 L410,540 L410,530 L420,530 L430,530 L430,540 L440,540 L440,530 L440,520 L440,510 L430,510 L430,520 L420,520 L410,520 L410,510 L420,510 L420,500 L410,500 L410,490 L420,490 L430,490 L430,500 L440,500 L440,490 L450,490 L460,490 L460,500 L450,500 L450,510 L450,520 L460,520 L460,510 L470,510 L470,520 L480,520 L480,510 L480,500 L470,500 L470,490 L480,490 L490,490 L500,490 L500,500 L490,500 L490,510 L490,520 L500,520 L500,510 L510,510 L510,520 L520,520 L520,510 L520,500 L510,500 L510,490 L520,490 L530,490 L530,500 L540,500 L540,490 L550,490 L560,490 L560,500 L550,500 L550,510 L560,510 L560,520 L550,520 L540,520 L540,510 L530,510 L530,520 L530,530 L530,540 L540,540 L540,530 L550,530 L560,530 L560,540 L550,540 L550,550 L560,550 L560,560 L550,560 L540,560 L540,550 L530,550 L530,560 L520,560 L510,560 L510,550 L520,550 L520,540 L520,530 L510,530 L510,540 L500,540 L500,530 L490,530 L490,540 L490,550 L500,550 L500,560 L490,560 L490,570 L490,580 L500,580 L500,570 L510,570 L520,570 L520,580 L510,580 L510,590 L520,590 L520,600 L510,600 L500,600 L500,590 L490,590 L490,600 L490,610 L500,610 L500,620 L490,620 L490,630 L490,640 L500,640 L500,630 L510,630 L510,640 L520,640 L520,630 L520,620 L510,620 L510,610 L520,610 L530,610 L540,610 L540,620 L530,620 L530,630 L530,640 L540,640 L540,630 L550,630 L550,640 L560,640 L560,630 L560,620 L550,620 L550,610 L560,610 L560,600 L560,590 L550,590 L550,600 L540,600 L530,600 L530,590 L540,590 L540,580 L530,580 L530,570 L540,570 L550,570 L550,580 L560,580 L560,570 L570,570 L570,580 L580,580 L580,570 L590,570 L600,570 L600,580 L590,580 L590,590 L600,590 L600,600 L590,600 L580,600 L580,590 L570,590 L570,600 L570,610 L580,610 L580,620 L570,620 L570,630 L570,640 L580,640 L580,630 L590,630 L590,640 L600,640 L600,630 L600,620 L590,620 L590,610 L600,610 L610,610 L620,610 L620,620 L610,620 L610,630 L610,640 L620,640 L620,630 L630,630 L630,640 L640,640 L640,630 L640,620 L630,620 L630,610 L640,610 L640,600 L640,590 L630,590 L630,600 L620,600 L610,600 L610,590 L620,590 L620,580 L610,580 L610,570 L620,570 L630,570 L630,580 L640,580 L640,570 L640,560 L630,560 L630,550 L640,550 L640,540 L640,530 L630,530 L630,540 L620,540 L620,530 L610,530 L610,540 L610,550 L620,550 L620,560 L610,560 L600,560 L600,550 L590,550 L590,560 L580,560 L570,560 L570,550 L580,550 L580,540 L570,540 L570,530 L580,530 L590,530 L590,540 L600,540 L600,530 L600,520 L600,510 L590,510 L590,520 L580,520 L570,520 L570,510 L580,510 L580,500 L570,500 L570,490 L580,490 L590,490 L590,500 L600,500 L600,490 L610,490 L620,490 L620,500 L610,500 L610,510 L610,520 L620,520 L620,510 L630,510 L630,520 L640,520 L640,510 L640,500 L630,500 L630,490 L640,490 L640,480 L640,470 L630,470 L630,480 L620,480 L610,480 L610,470 L620,470 L620,460 L610,460 L610,450 L620,450 L630,450 L630,460 L640,460 L640,450 L640,440 L630,440 L630,430 L640,430 L640,420 L640,410 L630,410 L630,420 L620,420 L620,410 L610,410 L610,420 L610,430 L620,430 L620,440 L610,440 L600,440 L590,440 L590,430 L600,430 L600,420 L600,410 L590,410 L590,420 L580,420 L580,410 L570,410 L570,420 L570,430 L580,430 L580,440 L570,440 L570,450 L570,460 L580,460 L580,450 L590,450 L600,450 L600,460 L590,460 L590,470 L600,470 L600,480 L590,480 L580,480 L580,470 L570,470 L570,480 L560,480 L550,480 L550,470 L560,470 L560,460 L560,450 L550,450 L550,460 L540,460 L540,450 L530,450 L530,460 L530,470 L540,470 L540,480 L530,480 L520,480 L520,470 L510,470 L510,480 L500,480 L490,480 L490,470 L500,470 L500,460 L490,460 L490,450 L500,450 L510,450 L510,460 L520,460 L520,450 L520,440 L520,430 L510,430 L510,440 L500,440 L490,440 L490,430 L500,430 L500,420 L490,420 L490,410 L500,410 L510,410 L510,420 L520,420 L520,410 L530,410 L540,410 L540,420 L530,420 L530,430 L530,440 L540,440 L540,430 L550,430 L550,440 L560,440 L560,430 L560,420 L550,420 L550,410 L560,410 L560,400 L550,400 L550,390 L560,390 L560,380 L560,370 L550,370 L550,380 L540,380 L540,370 L530,370 L530,380 L530,390 L540,390 L540,400 L530,400 L520,400 L520,390 L510,390 L510,400 L500,400 L490,400 L490,390 L500,390 L500,380 L490,380 L490,370 L500,370 L510,370 L510,380 L520,380 L520,370 L520,360 L520,350 L510,350 L510,360 L500,360 L490,360 L490,350 L500,350 L500,340 L490,340 L490,330 L500,330 L510,330 L510,340 L520,340 L520,330 L530,330 L540,330 L540,340 L530,340 L530,350 L530,360 L540,360 L540,350 L550,350 L550,360 L560,360 L560,350 L560,340 L550,340 L550,330 L560,330 L570,330 L570,340 L580,340 L580,330 L590,330 L600,330 L600,340 L590,340 L590,350 L600,350 L600,360 L590,360 L580,360 L580,350 L570,350 L570,360 L570,370 L580,370 L580,380 L570,380 L570,390 L570,400 L580,400 L580,390 L590,390 L590,400 L600,400 L600,390 L600,380 L590,380 L590,370 L600,370 L610,370 L620,370 L620,380 L610,380 L610,390 L610,400 L620,400 L620,390 L630,390 L630,400 L640,400 L640,390 L640,380 L630,380 L630,370 L640,370 L640,360 L640,350 L630,350 L630,360 L620,360 L610,360 L610,350 L620,350 L620,340 L610,340 L610,330 L620,330 L630,330 L630,340 L640,340 L640,330 L640,320 L630,320 L630,310 L640,310 L640,300 L640,290 L630,290 L630,300 L620,300 L620,290 L610,290 L610,300 L610,310 L620,310 L620,320 L610,320 L600,320 L600,310 L590,310 L590,320 L580,320 L570,320 L570,310 L580,310 L580,300 L570,300 L570,290 L580,290 L590,290 L590,300 L600,300 L600,290 L600,280 L600,270 L590,270 L590,280 L580,280 L570,280 L570,270 L580,270 L580,260 L570,260 L570,250 L580,250 L590,250 L590,260 L600,260 L600,250 L610,250 L620,250 L620,260 L610,260 L610,270 L610,280 L620,280 L620,270 L630,270 L630,280 L640,280 L640,270 L640,260 L630,260 L630,250 L640,250 L640,240 L640,230 L630,230 L630,240 L620,240 L610,240 L610,230 L620,230 L620,220 L610,220 L610,210 L620,210 L630,210 L630,220 L640,220 L640,210 L640,200 L630,200 L630,190 L640,190 L640,180 L640,170 L630,170 L630,180 L620,180 L620,170 L610,170 L610,180 L610,190 L620,190 L620,200 L610,200 L600,200 L590,200 L590,190 L600,190 L600,180 L600,170 L590,170 L590,180 L580,180 L580,170 L570,170 L570,180 L570,190 L580,190 L580,200 L570,200 L570,210 L570,220 L580,220 L580,210 L590,210 L600,210 L600,220 L590,220 L590,230 L600,230 L600,240 L590,240 L580,240 L580,230 L570,230 L570,240 L560,240 L560,230 L550,230 L550,240 L540,240 L530,240 L530,230 L540,230 L540,220 L530,220 L530,210 L540,210 L550,210 L550,220 L560,220 L560,210 L560,200 L550,200 L550,190 L560,190 L560,180 L560,170 L550,170 L550,180 L540,180 L540,170 L530,170 L530,180 L530,190 L540,190 L540,200 L530,200 L520,200 L510,200 L510,190 L520,190 L520,180 L520,170 L510,170 L510,180 L500,180 L500,170 L490,170 L490,180 L490,190 L500,190 L500,200 L490,200 L490,210 L490,220 L500,220 L500,210 L510,210 L520,210 L520,220 L510,220 L510,230 L520,230 L520,240 L510,240 L500,240 L500,230 L490,230 L490,240 L490,250 L500,250 L500,260 L490,260 L490,270 L490,280 L500,280 L500,270 L510,270 L510,280 L520,280 L520,270 L520,260 L510,260 L510,250 L520,250 L530,250 L530,260 L540,260 L540,250 L550,250 L560,250 L560,260 L550,260 L550,270 L560,270 L560,280 L550,280 L540,280 L540,270 L530,270 L530,280 L530,290 L530,300 L540,300 L540,290 L550,290 L560,290 L560,300 L550,300 L550,310 L560,310 L560,320 L550,320 L540,320 L540,310 L530,310 L530,320 L520,320 L510,320 L510,310 L520,310 L520,300 L520,290 L510,290 L510,300 L500,300 L500,290 L490,290 L490,300 L490,310 L500,310 L500,320 L490,320 L480,320 L480,310 L470,310 L470,320 L460,320 L450,320 L450,310 L460,310 L460,300 L450,300 L450,290 L460,290 L470,290 L470,300 L480,300 L480,290 L480,280 L470,280 L470,270 L480,270 L480,260 L480,250 L470,250 L470,260 L460,260 L460,250 L450,250 L450,260 L450,270 L460,270 L460,280 L450,280 L440,280 L430,280 L430,270 L440,270 L440,260 L440,250 L430,250 L430,260 L420,260 L420,250 L410,250 L410,260 L410,270 L420,270 L420,280 L410,280 L410,290 L410,300 L420,300 L420,290 L430,290 L440,290 L440,300 L430,300 L430,310 L440,310 L440,320 L430,320 L420,320 L420,310 L410,310 L410,320 L400,320 L390,320 L390,310 L400,310 L400,300 L400,290 L390,290 L390,300 L380,300 L380,290 L370,290 L370,300 L370,310 L380,310 L380,320 L370,320 L360,320 L360,310 L350,310 L350,320 L340,320 L330,320 L330,310 L340,310 L340,300 L330,300 L330,290 L340,290 L350,290 L350,300 L360,300 L360,290 L360,280 L360,270 L350,270 L350,280 L340,280 L330,280 L330,270 L340,270 L340,260 L330,260 L330,250 L340,250 L350,250 L350,260 L360,260 L360,250 L370,250 L380,250 L380,260 L370,260 L370,270 L370,280 L380,280 L380,270 L390,270 L390,280 L400,280 L400,270 L400,260 L390,260 L390,250 L400,250 L400,240 L390,240 L390,230 L400,230 L400,220 L400,210 L390,210 L390,220 L380,220 L380,210 L370,210 L370,220 L370,230 L380,230 L380,240 L370,240 L360,240 L360,230 L350,230 L350,240 L340,240 L330,240 L330,230 L340,230 L340,220 L330,220 L330,210 L340,210 L350,210 L350,220 L360,220 L360,210 L360,200 L360,190 L350,190 L350,200 L340,200 L330,200 L330,190 L340,190 L340,180 L330,180 L330,170 L340,170 L350,170 L350,180 L360,180 L360,170 L370,170 L380,170 L380,180 L370,180 L370,190 L370,200 L380,200 L380,190 L390,190 L390,200 L400,200 L400,190 L400,180 L390,180 L390,170 L400,170 L410,170 L410,180 L420,180 L420,170 L430,170 L440,170 L440,180 L430,180 L430,190 L440,190 L440,200 L430,200 L420,200 L420,190 L410,190 L410,200 L410,210 L420,210 L420,220 L410,220 L410,230 L410,240 L420,240 L420,230 L430,230 L430,240 L440,240 L440,230 L440,220 L430,220 L430,210 L440,210 L450,210 L460,210 L460,220 L450,220 L450,230 L450,240 L460,240 L460,230 L470,230 L470,240 L480,240 L480,230 L480,220 L470,220 L470,210 L480,210 L480,200 L480,190 L470,190 L470,200 L460,200 L450,200 L450,190 L460,190 L460,180 L450,180 L450,170 L460,170 L470,170 L470,180 L480,180 L480,170 L480,160 L480,150 L470,150 L470,160 L460,160 L450,160 L450,150 L460,150 L460,140 L450,140 L450,130 L460,130 L470,130 L470,140 L480,140 L480,130 L480,120 L470,120 L470,110 L480,110 L480,100 L480,90 L470,90 L470,100 L460,100 L460,90 L450,90 L450,100 L450,110 L460,110 L460,120 L450,120 L440,120 L430,120 L430,110 L440,110 L440,100 L440,90 L430,90 L430,100 L420,100 L420,90 L410,90 L410,100 L410,110 L420,110 L420,120 L410,120 L410,130 L410,140 L420,140 L420,130 L430,130 L440,130 L440,140 L430,140 L430,150 L440,150 L440,160 L430,160 L420,160 L420,150 L410,150 L410,160 L400,160 L390,160 L390,150 L400,150 L400,140 L400,130 L390,130 L390,140 L380,140 L380,130 L370,130 L370,140 L370,150 L380,150 L380,160 L370,160 L360,160 L360,150 L350,150 L350,160 L340,160 L330,160 L330,150 L340,150 L340,140 L330,140 L330,130 L340,130 L350,130 L350,140 L360,140 L360,130 L360,120 L360,110 L350,110 L350,120 L340,120 L330,120 L330,110 L340,110 L340,100 L330,100 L330,90 L340,90 L350,90 L350,100 L360,100 L360,90 L370,90 L380,90 L380,100 L370,100 L370,110 L370,120 L380,120 L380,110 L390,110 L390,120 L400,120 L400,110 L400,100 L390,100 L390,90 L400,90 L400,80 L390,80 L390,70 L400,70 L400,60 L400,50 L390,50 L390,60 L380,60 L380,50 L370,50 L370,60 L370,70 L380,70 L380,80 L370,80 L360,80 L360,70 L350,70 L350,80 L340,80 L330,80 L330,70 L340,70 L340,60 L330,60 L330,50 L340,50 L350,50 L350,60 L360,60 L360,50 L360,40 L360,30 L350,30 L350,40 L340,40 L330,40 L330,30 L340,30 L340,20 L330,20 L330,10 L340,10 L350,10 L350,20 L360,20 L360,10 L370,10 L380,10 L380,20 L370,20 L370,30 L370,40 L380,40 L380,30 L390,30 L390,40 L400,40 L400,30 L400,20 L390,20 L390,10 L400,10 L410,10 L410,20 L420,20 L420,10 L430,10 L440,10 L440,20 L430,20 L430,30 L440,30 L440,40 L430,40 L420,40 L420,30 L410,30 L410,40 L410,50 L420,50 L420,60 L410,60 L410,70 L410,80 L420,80 L420,70 L430,70 L430,80 L440,80 L440,70 L440,60 L430,60 L430,50 L440,50 L450,50 L460,50 L460,60 L450,60 L450,70 L450,80 L460,80 L460,70 L470,70 L470,80 L480,80 L480,70 L480,60 L470,60 L470,50 L480,50 L480,40 L480,30 L470,30 L470,40 L460,40 L450,40 L450,30 L460,30 L460,20 L450,20 L450,10 L460,10 L470,10 L470,20 L480,20 L480,10 L490,10 L500,10 L500,20 L490,20 L490,30 L490,40 L500,40 L500,30 L510,30 L510,40 L520,40 L520,30 L520,20 L510,20 L510,10 L520,10 L530,10 L530,20 L540,20 L540,10 L550,10 L560,10 L560,20 L550,20 L550,30 L560,30 L560,40 L550,40 L540,40 L540,30 L530,30 L530,40 L530,50 L530,60 L540,60 L540,50 L550,50 L560,50 L560,60 L550,60 L550,70 L560,70 L560,80 L550,80 L540,80 L540,70 L530,70 L530,80 L520,80 L510,80 L510,70 L520,70 L520,60 L520,50 L510,50 L510,60 L500,60 L500,50 L490,50 L490,60 L490,70 L500,70 L500,80 L490,80 L490,90 L490,100 L500,100 L500,90 L510,90 L520,90 L520,100 L510,100 L510,110 L520,110 L520,120 L510,120 L500,120 L500,110 L490,110 L490,120 L490,130 L500,130 L500,140 L490,140 L490,150 L490,160 L500,160 L500,150 L510,150 L510,160 L520,160 L520,150 L520,140 L510,140 L510,130 L520,130 L530,130 L540,130 L540,140 L530,140 L530,150 L530,160 L540,160 L540,150 L550,150 L550,160 L560,160 L560,150 L560,140 L550,140 L550,130 L560,130 L560,120 L560,110 L550,110 L550,120 L540,120 L530,120 L530,110 L540,110 L540,100 L530,100 L530,90 L540,90 L550,90 L550,100 L560,100 L560,90 L570,90 L570,100 L580,100 L580,90 L590,90 L600,90 L600,100 L590,100 L590,110 L600,110 L600,120 L590,120 L580,120 L580,110 L570,110 L570,120 L570,130 L580,130 L580,140 L570,140 L570,150 L570,160 L580,160 L580,150 L590,150 L590,160 L600,160 L600,150 L600,140 L590,140 L590,130 L600,130 L610,130 L620,130 L620,140 L610,140 L610,150 L610,160 L620,160 L620,150 L630,150 L630,160 L640,160 L640,150 L640,140 L630,140 L630,130 L640,130 L640,120 L640,110 L630,110 L630,120 L620,120 L610,120 L610,110 L620,110 L620,100 L610,100 L610,90 L620,90 L630,90 L630,100 L640,100 L640,90 L640,80 L630,80 L630,70 L640,70 L640,60 L640,50 L630,50 L630,60 L620,60 L620,50 L610,50 L610,60 L610,70 L620,70 L620,80 L610,80 L600,80 L600,70 L590,70 L590,80 L580,80 L570,80 L570,70 L580,70 L580,60 L570,60 L570,50 L580,50 L590,50 L590,60 L600,60 L600,50 L600,40 L600,30 L590,30 L590,40 L580,40 L570,40 L570,30 L580,30 L580,20 L570,20 L570,10 L580,10 L590,10 L590,20 L600,20 L600,10 L610,10 L620,10 L620,20 L610,20 L610,30 L610,40 L620,40 L620,30 L630,30 L630,40 L640,40 L640,30 L640,20 L630,20 L630,10 L640,10" fill="none" stroke="black" stroke-width="1"/>
</svg>